<svg version="1.1" id="Layer_1" xmlns="http://www.w3.org/2000/svg" xmlns:xlink="http://www.w3.org/1999/xlink" x="0px" y="0px"
	 viewBox="0 0 215 215" style="enable-background:new 0 0 215 215;" xml:space="preserve">
<style type="text/css">
	.st0{fill:#FAB214;}
</style>
<g>
	<path d="M27.45,32.23c3.09,6.49,6.11,12.9,9.23,19.25c0.27,0.55,1.24,1.06,1.89,1.06c12.15,0.06,24.29,0.07,36.44-0.01
		c0.62,0,1.55-0.76,1.82-1.38c3.44-8.22,10.3-12.37,19.05-11.23c1.57,0.2,2.24-0.3,2.97-1.57C105.21,27.2,111.68,16.12,118,4.96
		c1.36-2.4,3.11-3.35,5.84-3.34c18.71,0.07,37.42,0.08,56.13,0c2.83-0.01,4.59,1.01,5.99,3.47c9.24,16.19,18.56,32.33,27.93,48.45
		c1.42,2.43,1.47,4.51,0.04,6.95c-6.34,10.81-12.56,21.68-18.82,32.53c-0.45,0.78-0.88,1.58-1.29,2.33
		c6.19,7.99,5.6,16.97-0.66,24.21c3.05,5.3,6.13,10.65,9.21,16c3.84,6.67,7.63,13.38,11.57,19.98c1.46,2.44,1.37,4.53-0.04,6.95
		c-9.4,16.18-18.74,32.4-28.03,48.65c-1.36,2.37-3.14,3.37-5.86,3.36c-18.71-0.06-37.42-0.06-56.13,0c-2.73,0.01-4.5-1-5.85-3.38
		c-6.37-11.22-12.87-22.37-19.27-33.58c-0.68-1.19-1.29-1.71-2.8-1.45c-8.06,1.41-15.78-3-18.82-10.77
		c-0.61-1.57-1.39-1.96-2.96-1.95c-11.69,0.06-23.39,0.06-35.08-0.01c-1.52-0.01-2.29,0.49-2.93,1.83
		c-2.37,4.88-4.85,9.7-7.33,14.62c3.59,3.12,5.88,6.89,6.49,11.63c1.2,9.31-5.47,17.89-15.08,19.3C11.19,212.1,2.44,205.43,0.89,196
		c-1.47-8.95,4.93-17.99,13.87-19.59c1.04-0.18,2.15-0.53,3.13-0.32c2.31,0.48,3.27-0.58,4.17-2.53c1.95-4.25,4.11-8.4,6.31-12.53
		c0.72-1.36,0.67-2.38-0.1-3.7c-8.82-15.21-17.54-30.48-26.39-45.68c-1.46-2.51-1.52-4.62-0.04-7.15
		c8.84-15.2,17.55-30.47,26.37-45.69c0.79-1.37,0.96-2.42,0.21-3.91c-2.96-5.94-5.79-11.95-8.6-17.96
		c-0.54-1.16-1.13-1.63-2.51-1.64c-9.44-0.07-16.85-7.36-17.3-16.86C-0.41,9.4,6.75,1.42,16.06,0.55
		c8.84-0.82,17.09,5.74,18.53,14.76C35.58,21.45,33.31,26.91,27.45,32.23z M151.89,205.48c8.37,0,16.74-0.02,25.11,0.02
		c1.26,0.01,2.01-0.31,2.69-1.49c8.31-14.54,16.67-29.04,25.08-43.53c0.67-1.15,0.59-1.97-0.05-3.08
		c-6.14-10.56-12.26-21.14-18.29-31.77c-0.78-1.37-1.56-1.59-3.03-1.4c-8.18,1.02-15.07-2.83-18.52-10.34
		c-0.56-1.22-1.23-1.44-2.4-1.44c-11.84,0.03-23.68,0.04-35.51-0.01c-1.41-0.01-2.13,0.49-2.81,1.68
		c-5.87,10.28-11.79,20.54-17.74,30.78c-0.69,1.19-0.77,1.95,0.19,3.14c5.27,6.56,5.27,15.3-0.01,21.92
		c-0.95,1.19-0.84,1.98-0.15,3.16c5.95,10.24,11.86,20.5,17.72,30.79c0.69,1.22,1.47,1.62,2.84,1.61
		C135.3,205.45,143.59,205.48,151.89,205.48z M76.14,154.57c0.21-0.36,0.41-0.61,0.49-0.89c2.63-8.51,12.07-13.57,19.77-11.84
		c0.6,0.13,1.73-0.47,2.07-1.05c6.1-10.42,12.13-20.88,18.09-31.39c0.39-0.68,0.43-1.95,0.06-2.61
		c-5.98-10.57-12.05-21.11-18.17-31.6c-0.33-0.56-1.41-1.09-2.06-1c-8.6,1.22-16.29-3.03-19.43-11.02
		c-0.52-1.31-1.14-1.67-2.45-1.67c-11.92,0.04-23.84,0.05-35.76-0.01c-1.39-0.01-2.14,0.47-2.82,1.67
		c-8.24,14.42-16.51,28.81-24.84,43.17c-0.76,1.32-0.68,2.21,0.05,3.46c7.58,13.05,15.32,26.02,22.5,39.29
		c2.34,4.31,4.87,5.8,9.73,5.61C54.28,154.28,65.23,154.57,76.14,154.57z M185.18,89.66c0.15,0.33,0.3,0.65,0.45,0.98
		c0.52-0.57,1.18-1.06,1.55-1.71c5.87-10.12,11.73-20.25,17.5-30.42c0.41-0.73,0.47-2.09,0.06-2.8
		C196.4,41.08,188,26.5,179.52,11.96c-0.42-0.71-1.6-1.38-2.44-1.39c-16.75-0.08-33.5-0.08-50.25,0c-0.83,0-2.02,0.67-2.44,1.38
		c-6.11,10.42-12.11,20.9-18.17,31.34c-0.58,0.99-0.55,1.6,0.2,2.55c5.49,6.97,5.52,15.3,0.08,22.3c-0.79,1.02-0.84,1.69-0.21,2.77
		c6.03,10.38,11.98,20.8,18.05,31.15c0.42,0.72,1.58,1.42,2.4,1.42c11.77,0.09,23.54,0.05,35.31,0.09c1.27,0,1.8-0.39,2.21-1.64
		c1.89-5.78,5.8-9.78,11.62-11.39C178.84,89.73,182.07,89.92,185.18,89.66z M93.28,167.42c4.71-0.04,8.49-3.91,8.38-8.58
		c-0.1-4.68-3.97-8.37-8.69-8.29c-4.58,0.08-8.29,3.89-8.26,8.48C84.74,163.72,88.56,167.47,93.28,167.42z M18.13,201.9
		c4.72-0.01,8.47-3.79,8.43-8.51c-0.04-4.6-3.78-8.34-8.36-8.37c-4.74-0.04-8.49,3.67-8.51,8.42
		C9.66,198.2,13.37,201.91,18.13,201.9z M17.42,26.36c4.73-0.01,8.46-3.79,8.41-8.52c-0.05-4.64-3.73-8.32-8.36-8.35
		c-4.72-0.03-8.54,3.72-8.55,8.41C8.91,22.59,12.7,26.37,17.42,26.36z M93.2,65.48c4.72-0.02,8.52-3.84,8.46-8.52
		c-0.06-4.65-3.98-8.48-8.62-8.41c-4.57,0.07-8.3,3.85-8.34,8.45C84.68,61.68,88.5,65.5,93.2,65.48z M172.35,107.1
		c0.02,4.68,3.87,8.54,8.51,8.5c4.7-0.04,8.42-3.85,8.37-8.6c-0.05-4.61-3.77-8.34-8.37-8.37
		C176.19,98.59,172.34,102.42,172.35,107.1z"/>
	<path class="st0" d="M151.94,196.58c-5.96,0-11.92-0.07-17.88,0.03c-2.63,0.04-4.38-0.91-5.68-3.24
		c-3.53-6.33-7.23-12.56-10.8-18.86c-1.83-3.24-0.33-6.71,3.01-7.1c2.23-0.26,3.69,0.9,4.76,2.76c3.03,5.31,6.13,10.58,9.12,15.91
		c0.67,1.19,1.42,1.68,2.82,1.67c9.81-0.06,19.62-0.06,29.42,0c1.31,0.01,2.02-0.44,2.65-1.56c4.89-8.59,9.82-17.16,14.8-25.7
		c0.67-1.15,0.59-1.97-0.05-3.05c-3.29-5.59-6.52-11.22-9.74-16.86c-1.42-2.49-1.07-4.82,0.83-6.3c2.04-1.58,4.96-1.27,6.33,1.04
		c4.28,7.2,8.48,14.45,12.49,21.8c0.59,1.09,0.44,3.12-0.2,4.25c-6.17,10.99-12.51,21.88-18.8,32.8c-1.06,1.85-2.72,2.44-4.76,2.43
		C164.16,196.55,158.05,196.57,151.94,196.58z"/>
	<path class="st0" d="M56.37,145.58c-3.77,0-7.54-0.02-11.32,0.01c-2.01,0.02-3.47-0.82-4.46-2.55
		c-6.21-10.79-12.41-21.59-18.64-32.37c-1.05-1.82-1.02-3.52,0.03-5.33c6.2-10.71,12.37-21.44,18.51-32.18
		c1.09-1.91,2.65-2.76,4.81-2.76c7.32,0.02,14.64-0.01,21.95,0.02c3.29,0.01,5.38,1.86,5.32,4.58c-0.06,2.63-2.12,4.36-5.28,4.36
		c-6.11,0.02-12.22,0.04-18.33-0.02c-1.29-0.01-2,0.4-2.65,1.53c-4.85,8.53-9.74,17.03-14.68,25.51c-0.69,1.18-0.73,2.08-0.02,3.28
		c4.91,8.4,9.78,16.84,14.57,25.31c0.75,1.32,1.6,1.71,3.04,1.69c5.96-0.08,11.92-0.03,17.88-0.04c1.99,0,3.76,0.41,4.84,2.29
		c1.7,2.97-0.28,6.53-3.81,6.64C64.22,145.66,60.29,145.58,56.37,145.58z"/>
	<path class="st0" d="M151.9,19.5c6.11,0,12.22,0.05,18.33-0.03c2.38-0.03,3.97,0.92,5.14,2.97c6.03,10.54,12.1,21.06,18.2,31.56
		c1.18,2.03,1.27,3.9,0.06,5.95c-3.51,5.98-6.93,12.02-10.43,18.02c-1.43,2.45-3.45,3.33-5.64,2.57c-2.72-0.94-3.79-3.95-2.24-6.7
		c2.85-5.06,5.74-10.1,8.72-15.08c0.76-1.27,0.72-2.2-0.02-3.46c-4.88-8.33-9.69-16.7-14.47-25.1c-0.71-1.25-1.48-1.79-2.99-1.78
		c-9.8,0.08-19.61,0.06-29.41,0.01c-1.29-0.01-2.02,0.39-2.67,1.53c-3.07,5.46-6.22,10.87-9.36,16.29
		c-1.05,1.82-2.64,2.64-4.74,2.33c-1.94-0.29-3.22-1.51-3.51-3.35c-0.18-1.09,0.06-2.46,0.61-3.43c3.72-6.65,7.57-13.23,11.37-19.83
		c1-1.74,2.5-2.49,4.49-2.48C139.53,19.52,145.71,19.5,151.9,19.5z"/>
</g>
</svg>
