
<svg version="1.1" id="Layer_1" xmlns="http://www.w3.org/2000/svg" xmlns:xlink="http://www.w3.org/1999/xlink" x="0px" y="0px"
	 viewBox="0 0 215 215" style="enable-background:new 0 0 215 215;" xml:space="preserve">
<style type="text/css">
	.st0{fill:#FAB214;}
</style>
<g>
	<path d="M105.03,213.35c-0.58-0.18-1.15-0.37-1.74-0.53c-9.07-2.42-14.38-11.43-12.18-20.67c0.09-0.4,0.21-0.79,0.39-1.43
		c-15.9-9.2-31.82-18.41-47.28-27.36c-3.14,1.73-5.83,3.8-8.87,4.76c-8.85,2.82-18.17-2.4-20.87-11.3
		c-2.66-8.79,2.14-18.14,10.96-20.92c1.77-0.56,2.13-1.33,2.12-3c-0.05-17.01-0.05-34.03,0-51.04c0-1.54-0.35-2.23-1.94-2.71
		c-6.64-2-11.38-8.03-11.8-14.68c-0.45-7.27,3.17-13.62,9.51-16.69c6.21-3.01,13.7-1.94,18.78,2.84c1.15,1.08,1.87,1.19,3.28,0.37
		C60.1,42.4,74.86,33.9,89.61,25.36c0.59-0.34,1.17-0.7,1.22-0.73c0-3.18-0.39-6.03,0.07-8.73c1.28-7.48,5.87-12.04,13.19-13.88
		c0.32-0.08,0.62-0.24,0.94-0.37c1.65,0,3.3,0,4.95,0c1.42,0.47,2.89,0.84,4.26,1.43c7.65,3.35,11.57,11.38,9.6,19.77
		c-0.25,1.07-0.13,1.57,0.84,2.12c15.54,8.95,31.05,17.94,46.12,26.66c3.14-1.73,5.82-3.8,8.86-4.77c8.76-2.82,18,2.29,20.8,11.1
		c2.78,8.78-1.91,18.18-10.68,21.05c-1.84,0.6-2.36,1.37-2.35,3.27c0.08,16.94,0.07,33.89,0.02,50.83c0,1.53,0.35,2.2,1.93,2.72
		c6.68,2.19,10.74,6.9,11.69,13.85c0.92,6.77-1.65,12.28-7.23,16.27c-2.1,1.5-4.32,0.97-5.12-1.13c-0.7-1.83,0.26-2.97,1.64-4
		c4.06-3.02,5.61-7.45,4.24-11.99c-1.34-4.45-5.29-7.46-9.96-7.6c-4.65-0.14-8.72,2.64-10.35,7.06c-1.59,4.3-0.31,9,3.25,11.93
		c0.48,0.39,1.03,0.7,1.48,1.11c1.3,1.17,1.57,2.56,0.68,4.08c-0.83,1.41-2.65,1.89-4.15,0.94c-1.44-0.9-2.73-2.05-4.28-3.24
		c-4.67,2.7-9.47,5.48-14.27,8.25c-10.59,6.12-21.16,12.27-31.77,18.35c-1.23,0.71-1.66,1.27-1.3,2.85
		c2.16,9.43-3.53,18.24-13,20.42c-0.32,0.07-0.62,0.25-0.93,0.37C108.33,213.35,106.68,213.35,105.03,213.35z M94.71,29.77
		c-0.25,0.05-0.4,0.05-0.51,0.12c-15.47,8.94-30.93,17.89-46.42,26.8c-1.15,0.66-0.94,1.38-0.7,2.39
		c2.09,8.88-2.93,17.62-11.69,20.19c-1.34,0.39-1.7,0.93-1.69,2.24c0.04,17.29,0.04,34.58-0.01,51.88c0,1.45,0.44,1.95,1.82,2.37
		c8.58,2.58,13.63,11.15,11.6,19.86c-0.42,1.8,0.16,2.39,1.5,3.15c12.63,7.26,25.23,14.57,37.84,21.86
		c2.72,1.57,5.45,3.13,8.21,4.72c3.55-3.82,7.77-5.87,12.86-5.89c5.17-0.02,9.4,2.18,12.88,5.86c0.39-0.21,0.64-0.32,0.87-0.46
		c15.29-8.84,30.57-17.7,45.87-26.5c1.11-0.64,1.03-1.29,0.78-2.35c-2.1-9.01,2.94-17.72,11.8-20.32c1.25-0.37,1.6-0.87,1.6-2.11
		c-0.04-17.36-0.04-34.72,0-52.08c0-1.32-0.38-1.84-1.71-2.23c-8.74-2.57-13.8-11.33-11.65-20.2c0.33-1.36,0.05-1.93-1.09-2.59
		c-8.59-4.91-17.14-9.89-25.71-14.85c-6.89-3.99-13.78-7.97-20.62-11.93C110.68,37.54,103.03,37.55,94.71,29.77z M118.23,18.66
		c0.03-5.93-4.8-10.8-10.72-10.8c-5.84,0-10.66,4.75-10.73,10.58c-0.07,5.94,4.71,10.86,10.61,10.91
		C113.31,29.4,118.2,24.58,118.23,18.66z M107.49,207.14c5.91,0,10.75-4.86,10.73-10.79c-0.02-5.84-4.79-10.65-10.61-10.7
		c-5.93-0.05-10.81,4.76-10.83,10.68C96.75,202.27,101.58,207.14,107.49,207.14z M195.03,63.09c0.01-6-4.72-10.76-10.7-10.77
		c-5.9-0.01-10.78,4.89-10.74,10.79c0.04,5.85,4.8,10.61,10.66,10.66C190.23,73.81,195.02,69.08,195.03,63.09z M19.97,63.04
		c0,6,4.76,10.75,10.74,10.72c5.85-0.02,10.63-4.76,10.7-10.61c0.07-5.91-4.74-10.78-10.69-10.82
		C24.75,52.29,19.97,57.05,19.97,63.04z M19.97,151.88c-0.03,6,4.68,10.77,10.67,10.78c5.92,0.02,10.78-4.84,10.76-10.76
		c-0.02-5.84-4.77-10.61-10.63-10.67C24.8,141.17,20,145.9,19.97,151.88z"/>
	<path class="st0" d="M152.89,84.85c-3.52,2.03-6.75,3.83-9.89,5.78c-0.46,0.29-0.68,1.28-0.68,1.94c-0.05,5.79-0.1,11.58,0,17.36
		c0.05,3.02-1.12,5.12-3.76,6.55c-2.78,1.51-5.48,3.15-8.23,4.72c-4.23,2.41-7.61,0.5-7.63-4.33c-0.02-4.68,0-9.37,0-14.31
		c-0.63,0.26-1.12,0.41-1.56,0.66c-2.74,1.57-5.39,3.35-8.24,4.68c-1.98,0.93-2.34,2.19-2.33,4.17c0.07,14.47,0.04,28.94,0.04,43.4
		c0,0.81,0,1.61,0,2.77c0.93-0.48,1.52-0.75,2.08-1.08c12.61-7.29,25.21-14.61,37.85-21.85c1.76-1.01,2.56-2.2,2.49-4.27
		c-0.13-3.99-0.07-7.99-0.02-11.99c0.02-1.69,0.83-3.16,2.57-3.17c1.09-0.01,2.3,0.85,3.21,1.61c0.43,0.36,0.36,1.41,0.37,2.15
		c0.03,4-0.05,7.99,0.03,11.99c0.08,4-1.69,6.79-5.1,8.76c-12.39,7.13-24.75,14.3-37.13,21.46c-1.72,1-3.43,2.04-5.19,2.97
		c-2.88,1.52-5.84,1.56-8.67-0.07c-14.29-8.23-28.57-16.49-42.83-24.77c-2.97-1.72-4.44-4.39-4.44-7.87
		c0.01-16.4,0.01-32.79,0-49.19c0-3.57,1.54-6.23,4.59-7.99c14.15-8.2,28.31-16.38,42.48-24.56c3.05-1.76,6.16-1.76,9.21,0
		c14.17,8.17,28.33,16.36,42.48,24.56c3.04,1.76,4.6,4.43,4.59,7.99c-0.02,6.96,0.01,13.92-0.01,20.88
		c-0.01,2.24-1.23,3.65-3.05,3.65c-1.81,0.01-3.1-1.41-3.12-3.63c-0.04-5.65-0.01-11.3-0.02-16.95
		C152.97,86.32,152.93,85.77,152.89,84.85z M104.16,158.1c0.11-0.49,0.22-0.74,0.22-1c0.01-15.57,0.03-31.14-0.03-46.7
		c0-0.62-0.64-1.47-1.22-1.81c-12.88-7.51-25.79-14.97-38.7-22.43c-0.69-0.4-1.41-0.76-2.31-1.23c-0.04,0.86-0.1,1.46-0.1,2.07
		c0,14.67,0.03,29.35-0.04,44.02c-0.01,2.05,0.68,3.26,2.47,4.28c12.64,7.23,25.24,14.56,37.85,21.85
		C102.87,157.46,103.46,157.74,104.16,158.1z M65.11,79.39c13.89,8.03,27.37,15.84,40.9,23.59c0.68,0.39,1.88,0.56,2.52,0.22
		c3.66-1.94,7.22-4.06,10.85-6.15c-0.2-0.24-0.23-0.31-0.29-0.34c-13.65-7.94-27.3-15.89-40.97-23.8c-0.44-0.25-1.23-0.32-1.65-0.09
		C72.77,74.91,69.12,77.06,65.11,79.39z M97.11,60.87c0.22,0.28,0.25,0.35,0.31,0.39c13.64,7.94,27.28,15.88,40.94,23.78
		c0.4,0.23,1.11,0.33,1.47,0.13c3.28-1.82,6.51-3.72,9.75-5.6c-0.16-0.3-0.19-0.47-0.29-0.52c-13.42-7.78-26.83-15.56-40.3-23.26
		c-0.75-0.43-2.1-0.44-2.87-0.04C103.08,57.31,100.15,59.11,97.11,60.87z M83.42,68.8c13.99,8.11,27.71,16.07,41.45,24
		c0.4,0.23,1.11,0.36,1.48,0.17c2.17-1.16,4.27-2.43,6.6-3.78c-0.36-0.25-0.52-0.38-0.69-0.47c-13.54-7.86-27.08-15.73-40.64-23.55
		c-0.47-0.27-1.35-0.27-1.84-0.01C87.73,66.23,85.74,67.46,83.42,68.8z M136.08,94.57c-2.43,1.4-4.56,2.6-6.65,3.87
		c-0.28,0.17-0.52,0.66-0.52,1.01c-0.03,4.99-0.02,9.98-0.02,15.43c2.47-1.44,4.59-2.64,6.67-3.91c0.28-0.17,0.5-0.68,0.5-1.03
		C136.09,104.94,136.08,99.94,136.08,94.57z"/>
</g>
</svg>
