
<svg version="1.1" id="Layer_1" xmlns="http://www.w3.org/2000/svg" xmlns:xlink="http://www.w3.org/1999/xlink" x="0px" y="0px"
	 viewBox="0 0 215 215" style="enable-background:new 0 0 215 215;" xml:space="preserve">
<style type="text/css">
	.st0{fill:#FAB214;}
</style>
<g>
	<path d="M84.13,21.19c-2.67,0-5.11,0.02-7.54,0c-6.53-0.05-11.31-4.56-11.28-10.62c0.03-6.11,4.77-10.56,11.32-10.56
		C97.29,0,117.95,0,138.61,0.01c6.51,0,11.31,4.51,11.33,10.58c0.01,6.04-4.81,10.55-11.32,10.6c-2.44,0.02-4.87,0-7.44,0
		c-0.04,0.93-0.1,1.63-0.1,2.34c-0.01,12.93,0.04,25.86-0.02,38.8c-0.03,6.27,2.65,10.46,8.31,13.44
		c28.01,14.75,42.34,38.09,41.31,69.75c-1.18,36.35-30.17,65.96-66.49,69.19c-38.98,3.47-74.46-25.06-79.32-63.78
		c-3.91-31.11,12.51-61.46,40.73-75.07c5.87-2.83,8.62-7.26,8.57-13.74c-0.1-12.79-0.03-25.58-0.03-38.36
		C84.13,22.98,84.13,22.21,84.13,21.19z M173.05,130.18c-0.1-0.7-0.13-1.05-0.21-1.39c-4.75-21.53-16.97-37.28-36.66-47.14
		c-7.94-3.97-11.83-10.18-11.79-19.01c0.05-12.93,0.01-25.86,0.01-38.79c0-0.84,0-1.68,0-2.54c-11.34,0-22.36,0-33.64,0
		c0,0.89,0,1.66,0,2.43c0,12.93-0.06,25.86,0.02,38.79c0.05,9.06-4.06,15.31-12.11,19.3c-18.93,9.39-30.84,24.48-35.91,44.95
		c-0.82,3.31-1.15,6.73-1.71,10.19c0.59,0,0.75,0.04,0.87-0.01c0.54-0.21,1.06-0.45,1.59-0.68c15.14-6.62,30.87-9.32,47.33-7.16
		c7.87,1.03,15.71,2.31,23.6,3.07c12.9,1.24,25.83,0.96,38.73-0.02C159.79,131.68,166.36,130.87,173.05,130.18z M173.93,136.89
		c-7.11,0.69-13.93,1.47-20.76,1.97c-19.87,1.47-39.66,0.98-59.35-2.5c-17.95-3.18-35.03-0.23-51.31,7.82
		c-1.11,0.55-1.46,1.2-1.29,2.36c0.33,2.28,0.49,4.59,0.89,6.86c6.19,35.26,40.65,60.13,75.77,54.08
		c26.46-4.56,44.17-20.06,53.08-45.4C173.81,153.96,174.6,145.5,173.93,136.89z M107.49,14.39c1.23,0,2.45,0,3.68,0
		c9.31,0,18.63,0.02,27.94-0.02c2.39-0.01,3.96-1.49,4.04-3.61c0.09-2.24-1.46-3.82-3.92-3.99c-0.5-0.03-1.01-0.02-1.52-0.02
		c-20.07,0-40.14,0-60.22,0c-0.79,0-1.6-0.02-2.37,0.12c-2.04,0.36-3.35,2.26-3.05,4.29c0.31,2.05,1.85,3.21,4.43,3.21
		C86.84,14.4,97.16,14.39,107.49,14.39z"/>
	<path class="st0" d="M98.28,147.36c7.26,0.01,13.09,5.9,13,13.13c-0.09,7.16-5.92,12.93-13.04,12.91
		c-7.1-0.01-12.96-5.84-13.03-12.96C85.14,153.25,91.03,147.35,98.28,147.36z M104.57,160.28c-0.04-3.45-3.02-6.34-6.44-6.24
		c-3.5,0.09-6.23,2.99-6.15,6.51c0.08,3.4,2.89,6.12,6.31,6.11C101.76,166.64,104.61,163.75,104.57,160.28z"/>
	<path class="st0" d="M120.64,186.97c0.04,6.11-4.82,11.07-10.88,11.12c-6.02,0.05-11.05-4.9-11.13-10.93
		c-0.07-5.99,4.91-11.06,10.94-11.12C115.63,175.99,120.61,180.9,120.64,186.97z M109.7,182.84c-2.4-0.01-4.27,1.82-4.28,4.2
		c-0.02,2.39,1.82,4.25,4.22,4.26c2.38,0.01,4.3-1.86,4.32-4.2C113.98,184.76,112.07,182.85,109.7,182.84z"/>
	<path class="st0" d="M136.36,159.07c6.08,0.04,10.95,5,10.88,11.08c-0.08,6.09-5.07,11.01-11.09,10.92
		c-6.09-0.09-10.89-5.02-10.85-11.13C125.33,163.83,130.22,159.03,136.36,159.07z M140.53,170.11c0.03-2.31-1.91-4.32-4.22-4.35
		c-2.29-0.04-4.32,1.94-4.36,4.23c-0.04,2.31,1.9,4.28,4.24,4.31C138.56,174.33,140.5,172.45,140.53,170.11z"/>
</g>
</svg>
