
<svg version="1.1" id="Layer_1" xmlns="http://www.w3.org/2000/svg" xmlns:xlink="http://www.w3.org/1999/xlink" x="0px" y="0px"
	 viewBox="0 0 215 215" style="enable-background:new 0 0 215 215;" xml:space="preserve">
<style type="text/css">
	.st0{fill:#FAB214;}
</style>
<g>
	<path d="M98.71,214.59c-0.44-0.32-0.91-0.6-1.33-0.95c-1.35-1.13-1.92-2.59-1.45-4.29c0.48-1.77,1.72-2.84,3.55-3.09
		c0.68-0.09,1.39-0.05,2.08-0.05c14.19,0,28.37,0,42.56,0c7.55,0,11.37-6.35,7.86-13.08c-8.08-15.47-16.22-30.92-24.27-46.41
		c-0.66-1.27-1.4-1.59-2.74-1.59c-29.21,0.04-58.41,0.04-87.62-0.01c-1.49,0-2.18,0.54-2.83,1.78c-8,15.36-15.88,30.79-24.16,46
		c-3.69,6.78,0.98,13.56,8.02,13.41c14.46-0.3,28.93-0.1,43.39-0.08c2.47,0,4.06,1.11,4.62,3.12c0.52,1.86-0.29,3.55-2.32,4.85
		c-0.17,0.11-0.3,0.27-0.44,0.4c-16.28,0-32.56,0-48.85,0c-0.58-0.19-1.15-0.4-1.74-0.57c-10.6-2.93-15.51-14.4-10.32-24.35
		c12.13-23.25,24.33-46.47,36.5-69.71c3.58-6.84,7.18-13.68,10.72-20.54c0.4-0.77,0.7-1.69,0.71-2.54
		c0.05-11.43,0.03-22.86,0.03-34.29c0-0.27-0.04-0.54-0.09-1.12c-1.3,0-2.59,0.04-3.88-0.01c-2.65-0.09-4.33-1.69-4.35-4.32
		c-0.06-5.44-0.05-10.87,0-16.31c0.02-2.76,1.67-4.41,4.45-4.44c4.66-0.06,9.32-0.02,13.98-0.02c17.81,0,35.61,0,53.42,0
		c4.52,0,5.78,1.28,5.78,5.88c0,4.67,0.01,9.34,0,14.01c-0.01,3.74-1.46,5.19-5.18,5.21c-0.96,0-1.93,0-3.17,0c0,0.87,0,1.6,0,2.34
		c0,10.73-0.03,21.47,0.04,32.2c0.01,1.32,0.35,2.77,0.96,3.94c15.55,29.79,31.16,59.54,46.75,89.31
		c4.68,8.95,1.85,18.92-6.64,23.32c-1.64,0.85-3.46,1.33-5.2,1.98C131.27,214.59,114.99,214.59,98.71,214.59z M122.32,136.68
		c-0.37-0.77-0.64-1.38-0.95-1.98c-5.64-10.79-11.32-21.56-16.89-32.4c-0.7-1.36-1.12-3.02-1.13-4.55
		c-0.09-11.29-0.05-22.59-0.05-33.88c0-0.74,0-1.48,0-2.24c-14.88,0-29.51,0-44.25,0c0,0.91,0,1.67,0,2.43
		c0,11.15,0.05,22.31-0.05,33.46c-0.02,1.66-0.46,3.47-1.22,4.95c-5.53,10.77-11.19,21.48-16.8,32.21c-0.31,0.6-0.59,1.22-0.96,1.99
		C67.51,136.68,94.8,136.68,122.32,136.68z M50.79,53.01c20.29,0,40.47,0,60.71,0c0-2.78,0-5.45,0-8.1c-20.33,0-40.51,0-60.71,0
		C50.79,47.68,50.79,50.3,50.79,53.01z"/>
	<path class="st0" d="M214.35,45.17c-3.64,6.31-7.38,12.57-10.89,18.96c-1.45,2.63-3.27,3.8-6.33,3.69
		c-5.63-0.2-11.27-0.03-16.9-0.08c-1.16-0.01-1.89,0.3-2.53,1.32c-2.24,3.53-4.63,6.96-6.85,10.49c-0.34,0.53-0.38,1.59-0.08,2.14
		c1.89,3.42,2.32,6.92,1.16,10.68c-0.2,0.66,0.05,1.76,0.51,2.27c1.91,2.12,4.04,4.04,5.98,6.13c0.88,0.94,1.61,1.09,2.87,0.7
		c5.15-1.59,9.7-0.36,13.23,3.7c3.52,4.06,4.18,8.79,1.82,13.64c-2.35,4.83-6.44,7.23-11.81,7.06c-8.16-0.25-13.8-8.4-11.29-16.32
		c0.4-1.26,0.26-2-0.67-2.88c-2.08-1.95-4-4.08-6.11-6c-0.51-0.47-1.6-0.71-2.27-0.52c-5.28,1.54-10.46,0.12-13.77-3.93
		c-3.23-3.95-3.76-9.44-1.34-13.91c2.5-4.61,7.35-7.03,12.77-6.52c0.63,0.06,1.59-0.37,1.95-0.88c2.39-3.42,4.7-6.91,6.92-10.44
		c0.34-0.54,0.38-1.62,0.07-2.18c-2.41-4.47-4.89-8.91-7.48-13.28c-0.39-0.65-1.47-1.24-2.24-1.26c-5.84-0.1-11.69-0.12-17.53-0.03
		c-2.36,0.04-3.93-0.84-5.09-2.88c-3.03-5.32-6.11-10.62-9.27-15.86c-0.61-1-1.59-1.91-2.61-2.5c-2.58-1.51-5.27-2.81-8.01-4.24
		c-3.16,2.55-6.72,3.88-10.83,3.07c-5.8-1.14-9.99-5.94-10.24-11.62c-0.26-6.03,3.44-11.14,9.28-12.82
		c0.39-0.11,0.76-0.29,1.14-0.43c1.39,0,2.78,0,4.17,0c0.11,0.08,0.2,0.21,0.33,0.25c6.89,2.15,9.78,5.89,10.1,13.04
		c0.02,0.48,0.21,1.19,0.56,1.38c2.14,1.22,4.34,2.33,6.59,3.52c2.93-5.08,5.65-9.94,8.52-14.7c0.79-1.31,2.07-2.33,3.12-3.48
		c8.35,0,16.7,0,25.05,0c1.08,1.22,2.38,2.3,3.21,3.67c2.87,4.76,5.62,9.59,8.3,14.46c0.68,1.23,1.44,1.59,2.78,1.57
		c5.7-0.07,11.39,0.04,17.09-0.06c2.52-0.05,4.15,0.92,5.38,3.11c3.68,6.54,7.49,13,11.25,19.5
		C214.35,43.5,214.35,44.34,214.35,45.17z M187.58,59.39c2.5,0,5.01,0.09,7.5-0.06c0.72-0.04,1.7-0.59,2.06-1.21
		c2.6-4.36,5.1-8.77,7.53-13.23c0.32-0.58,0.32-1.64-0.01-2.22c-2.42-4.38-4.92-8.72-7.52-13c-0.37-0.61-1.36-1.17-2.08-1.19
		c-4.93-0.1-9.87-0.11-14.8,0c-0.77,0.02-1.83,0.61-2.23,1.26c-2.52,4.08-4.87,8.27-7.35,12.37c-0.62,1.02-0.66,1.8-0.05,2.85
		c2.51,4.33,4.88,8.74,7.43,13.04c0.39,0.66,1.43,1.25,2.2,1.31C182.7,59.5,185.14,59.39,187.58,59.39z M153.89,8.79
		c-2.43,0-4.87,0.06-7.3-0.02c-1.18-0.04-1.87,0.31-2.47,1.39c-2.36,4.26-4.89,8.43-7.22,12.7c-0.37,0.68-0.38,1.91-0.01,2.58
		c2.35,4.26,4.82,8.46,7.36,12.62c0.37,0.61,1.35,1.19,2.06,1.2c4.94,0.1,9.88,0.01,14.81,0.09c1.22,0.02,1.85-0.43,2.43-1.45
		c2.34-4.11,4.73-8.2,7.18-12.24c0.63-1.04,0.61-1.81,0-2.84c-2.45-4.13-4.86-8.28-7.16-12.5c-0.68-1.24-1.47-1.61-2.81-1.55
		C158.48,8.87,156.18,8.79,153.89,8.79z M114.13,13.08c0.06-2.2-1.75-4.15-3.96-4.27c-2.29-0.12-4.3,1.76-4.36,4.06
		c-0.05,2.24,1.72,4.15,3.94,4.26C112.05,17.25,114.06,15.38,114.13,13.08z M159.97,84.09c-2.31,0.05-4.16,2.04-4.06,4.36
		c0.1,2.23,2.01,4.02,4.23,3.98c2.21-0.05,4.07-1.93,4.08-4.15C164.23,85.99,162.25,84.04,159.97,84.09z M189.27,113.39
		c0.02-2.21-1.82-4.13-4.03-4.2c-2.31-0.08-4.27,1.8-4.28,4.13c-0.02,2.24,1.78,4.13,4,4.21
		C187.24,117.6,189.24,115.69,189.27,113.39z"/>
	<path d="M79.92,214.59c-0.39-0.27-0.78-0.53-1.16-0.82c-2.07-1.58-2.36-4.34-0.65-6.2c1.64-1.79,4.42-1.79,6.08-0.01
		c1.72,1.85,1.45,4.61-0.62,6.2c-0.37,0.29-0.77,0.55-1.15,0.83C81.59,214.59,80.76,214.59,79.92,214.59z"/>
	<path d="M81.15,120.04c-8.33,0-14.41-8.06-11.88-15.96c1.86-5.82,5.12-10.95,8.67-15.86c1.6-2.21,4.7-2.32,6.3-0.14
		c3.8,5.16,7.32,10.55,9.01,16.82C95.28,112.49,89.13,120.04,81.15,120.04z M81.52,98.8c-0.24,0.01-0.47,0.01-0.71,0.02
		c-1.22,2.61-2.57,5.17-3.62,7.85c-0.66,1.67,0.17,3.15,1.57,4.18c1.5,1.1,3.12,1.14,4.66,0.09c1.43-0.97,2.37-2.44,1.74-4.11
		C84.13,104.1,82.75,101.48,81.52,98.8z"/>
</g>
</svg>
