<?xml version="1.0" encoding="utf-8"?>
<!-- Generator: Adobe Illustrator 24.3.0, SVG Export Plug-In . SVG Version: 6.00 Build 0)  -->
<svg version="1.1" id="Layer_1" xmlns="http://www.w3.org/2000/svg" xmlns:xlink="http://www.w3.org/1999/xlink" x="0px" y="0px"
	 viewBox="0 0 215 215" style="enable-background:new 0 0 215 215;" xml:space="preserve">
<style type="text/css">
	.st0{fill:#FAB214;}
</style>
<path d="M7.55,125.4c66.81,0,133.29,0,200.09,0c-0.32-4.27,0.85-8.51-1.08-12.69c-2.59-5.61-4.98-11.31-7.29-17.04
	c-0.74-1.83-1.59-2.53-3.68-2.51c-19.21,0.1-38.42,0.06-57.63,0.06c-0.82,0-1.67,0.09-2.45-0.1c-1.79-0.43-2.87-1.62-2.85-3.5
	c0.01-1.88,1.09-3.05,2.89-3.47c0.71-0.16,1.48-0.09,2.23-0.09c20.4,0,40.8,0.04,61.2-0.05c2.78-0.01,4.39,0.93,5.46,3.53
	c3.07,7.51,6.37,14.93,9.48,22.42c0.55,1.33,0.82,2.86,0.87,4.3c0.12,3.95,0.05,7.91,0.03,11.86c-0.02,3.21-1.26,4.47-4.47,4.47
	c-14.07,0.01-28.14,0.01-42.22,0.01c-54.06,0-108.11,0-162.17,0c-4.72,0-5.28-0.9-5.66-5.58c-0.73-8.95,0.99-17.23,5.18-25.16
	c2.18-4.13,3.8-8.57,5.57-12.91c0.85-2.08,2.25-2.92,4.47-2.92c20.85,0.04,41.7,0.02,62.54,0.03c2.83,0,4.46,1.32,4.48,3.54
	c0.02,2.29-1.65,3.61-4.65,3.61c-19.51,0.01-39.02,0.04-58.52-0.05c-1.89-0.01-2.71,0.64-3.38,2.3c-2.03,5.04-3.92,10.18-6.45,14.97
	C7.02,115.24,7.61,120.19,7.55,125.4z"/>
<path class="st0" d="M43.24,75.31C32.1,75.3,23.6,65.19,25.88,54.26c2.02-9.67,5.54-18.83,10.87-27.21
	c0.95-1.49,2.16-2.86,3.47-4.04c2.15-1.93,4.04-1.98,6.13,0.03c1.64,1.58,3.14,3.41,4.3,5.37c4.78,8.06,8.14,16.73,10.01,25.9
	C62.9,65.23,54.39,75.32,43.24,75.31z M43.31,29.64c-4.84,8.57-8.64,16.78-10.55,25.74c-0.92,4.34,1.01,8.65,4.67,11.03
	c3.63,2.35,8.3,2.39,11.77-0.08c3.8-2.71,5.74-6.54,4.45-11.06c-1.69-5.91-3.93-11.67-6.15-17.41
	C46.47,35.19,44.91,32.73,43.31,29.64z"/>
<path class="st0" d="M175.4,75.31c-11.04-0.05-19.52-10.11-17.3-20.91c2.01-9.75,5.56-18.98,10.94-27.41
	c0.98-1.54,2.28-2.96,3.66-4.17c1.94-1.7,3.71-1.76,5.6,0c1.72,1.6,3.31,3.46,4.51,5.47c4.86,8.1,8.23,16.85,10.11,26.09
	C195.13,65.29,186.56,75.36,175.4,75.31z M175.56,29.63c-4.84,8.56-8.64,16.76-10.55,25.73c-0.92,4.35,1,8.65,4.66,11.03
	c3.63,2.36,8.29,2.4,11.77-0.07c3.81-2.7,5.75-6.53,4.46-11.06c-1.68-5.91-3.92-11.67-6.15-17.41
	C178.72,35.2,177.16,32.74,175.56,29.63z"/>
<path class="st0" d="M107.58,111.12C96.43,111.1,87.93,101,90.22,90.07c2.02-9.67,5.54-18.83,10.87-27.21
	c0.95-1.49,2.16-2.86,3.47-4.04c2.15-1.93,4.04-1.98,6.13,0.03c1.64,1.58,3.14,3.41,4.3,5.37c4.78,8.06,8.14,16.73,10.02,25.9
	C127.23,101.04,118.72,111.13,107.58,111.12z M107.65,65.44c-4.84,8.56-8.64,16.77-10.55,25.74c-0.92,4.34,1,8.65,4.67,11.03
	c3.63,2.35,8.3,2.39,11.77-0.07c3.81-2.71,5.74-6.54,4.45-11.06c-1.68-5.91-3.93-11.67-6.15-17.41
	C110.81,71,109.25,68.54,107.65,65.44z"/>
<path d="M107.56,193.47c-11.14-0.02-19.63-10.13-17.35-21.06c2.02-9.67,5.55-18.83,10.87-27.21c0.91-1.43,2.05-2.76,3.3-3.9
	c2.29-2.1,4.26-2.13,6.49,0.05c1.58,1.54,3,3.33,4.12,5.23c4.77,8.06,8.13,16.73,10.01,25.9
	C127.23,183.4,118.71,193.49,107.56,193.47z M107.65,147.8c-4.84,8.56-8.64,16.77-10.55,25.73c-0.92,4.35,1,8.65,4.66,11.03
	c3.63,2.36,8.29,2.4,11.77-0.07c3.81-2.71,5.74-6.54,4.46-11.06c-1.68-5.91-3.93-11.67-6.15-17.41
	C110.81,153.36,109.25,150.9,107.65,147.8z"/>
<path d="M43.26,168.41c-10.43,0.03-20.07-9.58-17.35-21.93c0.56-2.53,1.29-5.04,2.11-7.5c0.8-2.39,2.6-3.34,4.62-2.7
	c2.04,0.65,2.79,2.64,2.07,5.15c-0.72,2.5-1.48,5-1.93,7.55c-0.81,4.52,0.98,8.07,4.72,10.53c3.77,2.48,7.79,2.47,11.55,0
	c3.72-2.45,5.52-6.02,4.7-10.54c-0.47-2.55-1.22-5.05-1.93-7.55c-0.72-2.5,0.04-4.49,2.08-5.14c2.02-0.64,3.79,0.33,4.63,2.71
	c1.71,4.86,3.25,9.77,2.23,15.04C59.14,162.34,51.75,168.41,43.26,168.41z"/>
<path d="M178.98,168.41c-10.76-0.05-19.13-9.67-17.44-20.25c0.51-3.21,1.44-6.37,2.42-9.49c0.68-2.18,2.67-3.05,4.6-2.37
	c1.88,0.66,2.67,2.55,2.06,4.78c-0.72,2.65-1.56,5.29-2.03,7.98c-0.78,4.42,1.03,7.88,4.62,10.38c3.54,2.46,8.26,2.47,11.76,0.02
	c3.57-2.5,5.39-5.96,4.63-10.38c-0.44-2.55-1.19-5.06-1.92-7.55c-0.74-2.53-0.07-4.5,1.93-5.22c2.06-0.74,3.9,0.25,4.78,2.76
	c1.67,4.79,3.19,9.63,2.21,14.82C194.98,162.35,187.58,168.45,178.98,168.41z"/>
<path class="st0" d="M46.82,43.14c-0.03,1.94-1.68,3.54-3.61,3.51c-1.94-0.03-3.53-1.68-3.5-3.62c0.03-1.95,1.67-3.54,3.61-3.51
	C45.26,39.56,46.85,41.2,46.82,43.14z"/>
<path class="st0" d="M50.4,53.72c0.06,1.93-1.52,3.61-3.45,3.67c-1.93,0.06-3.6-1.52-3.66-3.46c-0.06-1.94,1.5-3.61,3.45-3.67
	C48.67,50.21,50.33,51.78,50.4,53.72z"/>
<path class="st0" d="M43.25,61.05c-0.04,1.94-1.69,3.54-3.62,3.5c-1.94-0.04-3.53-1.69-3.49-3.63c0.04-1.95,1.68-3.53,3.62-3.5
	C41.69,57.47,43.28,59.11,43.25,61.05z"/>
<path class="st0" d="M179.07,46.63c0.02,1.94-1.59,3.58-3.52,3.6c-1.93,0.02-3.57-1.59-3.59-3.53c-0.02-1.95,1.57-3.57,3.52-3.59
	C177.41,43.09,179.05,44.69,179.07,46.63z"/>
<path class="st0" d="M175.49,53.94c-0.06,1.94-1.74,3.52-3.66,3.46c-1.94-0.06-3.51-1.73-3.45-3.67c0.06-1.95,1.72-3.52,3.66-3.46
	C173.98,50.33,175.55,52,175.49,53.94z"/>
<path class="st0" d="M175.53,60.82c0.1-1.94,1.79-3.49,3.73-3.39c1.93,0.1,3.48,1.8,3.39,3.73c-0.1,1.93-1.81,3.49-3.73,3.39
	C176.98,64.46,175.43,62.75,175.53,60.82z"/>
<path class="st0" d="M111.16,82.4c0.04,1.93-1.55,3.6-3.48,3.64c-1.93,0.04-3.59-1.55-3.63-3.49c-0.04-1.95,1.54-3.59,3.48-3.64
	C109.46,78.87,111.11,80.46,111.16,82.4z"/>
<path class="st0" d="M107.58,93.23c-0.01,1.94-1.63,3.56-3.57,3.56c-1.94-0.01-3.55-1.63-3.54-3.57c0.01-1.95,1.62-3.56,3.56-3.55
	C105.97,89.66,107.59,91.28,107.58,93.23z"/>
</svg>
