<?xml version="1.0" encoding="utf-8"?><svg xmlns="http://www.w3.org/2000/svg" xmlns:xlink="http://www.w3.org/1999/xlink"><symbol style="enable-background:new 0 0 512 512" xml:space="preserve" viewBox="0 0 512 512" id="brand" xmlns="http://www.w3.org/2000/svg"><g fill="none" stroke="#fff" stroke-width="15" stroke-linecap="round" stroke-linejoin="round" stroke-miterlimit="10"><path d="M426.405 237.742V146.85a41.864 41.864 0 0 0-10.456-27.679l-45.89-52.07h-52.077l-13.179 14.954m-23.188 26.309-9.524 10.807a41.925 41.925 0 0 0-3.975 5.323" style="stroke-width:15;stroke-linecap:round;stroke-linejoin:round;stroke-miterlimit:10" data-original="#000000"/><path d="M305.551 185.217v-33.178a8 8 0 0 1 8-8h60.939a8 8 0 0 1 8 8v33.178h-76.939zm0 0h76.939v52.525h-76.939zM85.437 181v56.742h182.68V94c0-13.807-11.193-25-25-25h-132.68c-13.807 0-25 11.193-25 25v52" style="stroke-width:15;stroke-linecap:round;stroke-linejoin:round;stroke-miterlimit:10" data-original="#000000"/><circle cx="212.33" cy="130.962" r="16.025" style="stroke-width:15;stroke-linecap:round;stroke-linejoin:round;stroke-miterlimit:10" data-original="#000000"/><circle cx="141.223" cy="130.962" r="16.025" style="stroke-width:15;stroke-linecap:round;stroke-linejoin:round;stroke-miterlimit:10" data-original="#000000"/><circle cx="141.223" cy="192.116" r="16.025" style="stroke-width:15;stroke-linecap:round;stroke-linejoin:round;stroke-miterlimit:10" data-original="#000000"/><circle cx="212.33" cy="192.116" r="16.025" style="stroke-width:15;stroke-linecap:round;stroke-linejoin:round;stroke-miterlimit:10" data-original="#000000"/><path d="M353.233 504.5h90.891c5.523 0 10-4.477 10-10V319.171h0" style="stroke-width:15;stroke-linecap:round;stroke-linejoin:round;stroke-miterlimit:10" data-original="#000000"/><path d="M454.124 408H395a3 3 0 0 0-3 3v44a3 3 0 0 0 3 3h59.124v-50zM56.19 319.171h0V494.5c0 5.523 4.477 10 10 10h288.056V237.742" style="stroke-width:15;stroke-linecap:round;stroke-linejoin:round;stroke-miterlimit:10" data-original="#000000"/><path d="M122.693 410c8.601 33.668 39.131 58.562 75.478 58.562 43.023 0 77.901-34.877 77.901-77.901 0-32.019-19.324-59.514-46.94-71.49H167.21c-22.988 9.969-40.218 30.696-45.352 55.829" style="stroke-width:15;stroke-linecap:round;stroke-linejoin:round;stroke-miterlimit:10" data-original="#000000"/><path d="M236.738 375.304h-20.094a3.116 3.116 0 0 1-3.116-3.116v-20.094a3.116 3.116 0 0 0-3.116-3.116H185.93a3.116 3.116 0 0 0-3.116 3.116v20.094a3.116 3.116 0 0 1-3.116 3.116h-20.094a3.116 3.116 0 0 0-3.116 3.116v24.482a3.116 3.116 0 0 0 3.116 3.116h20.094a3.116 3.116 0 0 1 3.116 3.116v20.094a3.116 3.116 0 0 0 3.116 3.116h24.482a3.116 3.116 0 0 0 3.116-3.116v-20.094a3.116 3.116 0 0 1 3.116-3.116h20.094a3.116 3.116 0 0 0 3.116-3.116V378.42a3.116 3.116 0 0 0-3.116-3.116zm247.427-56.133h-85.66a10 10 0 0 1-9.067-5.782l-35.192-75.647h94.776a8 8 0 0 1 7.254 4.626l32.423 69.694c1.542 3.314-.878 7.109-4.534 7.109zm-172.465 0H27.834c-3.615 0-6.035-3.718-4.572-7.023l30.82-69.643a8 8 0 0 1 7.316-4.762h292.848l-33.402 75.476a9.999 9.999 0 0 1-9.144 5.952zm-6.149-257.489V18.336c0-5.985 4.852-10.836 10.836-10.836h55.266c5.985 0 10.836 4.852 10.836 10.836v43.346a5.418 5.418 0 0 1-5.418 5.418h-66.102a5.418 5.418 0 0 1-5.418-5.418z" style="stroke-width:15;stroke-linecap:round;stroke-linejoin:round;stroke-miterlimit:10" data-original="#000000"/></g></symbol><symbol class="bw-6 bh-6 btext-gray-800 bdark:text-white" fill="none" viewBox="0 0 24 24" id="cart" xmlns="http://www.w3.org/2000/svg"><path stroke="currentColor" stroke-linecap="round" stroke-linejoin="round" stroke-width="2" d="M9 10V6a3 3 0 0 1 3-3v0a3 3 0 0 1 3 3v4m3-2 .917 11.923A1 1 0 0 1 17.92 21H6.08a1 1 0 0 1-.997-1.077L6 8h12Z"/></symbol><symbol viewBox="0 0 64 64" style="enable-background:new 0 0 512 512" xml:space="preserve" id="chemical" xmlns="http://www.w3.org/2000/svg"><g fill="#fff"><path d="M46 15c1.7 0 3 1.4 3 3 0 .6.4 1 1 1s1-.4 1-1c0-2.8-2.2-5-5-5-.6 0-1 .4-1 1s.4 1 1 1zM19.6 25H18c-.6 0-1 .4-1 1s.4 1 1 1h1.6c.6 0 1-.4 1-1s-.4-1-1-1zM38 37h-2.4l3.3-6.6c.2-.4.1-.9-.2-1.2s-.8-.3-1.2-.1l-12 8c-.4.2-.5.7-.4 1.1s.5.7 1 .7h2.4l-3.3 6.6c-.2.4-.1.9.2 1.2s1 .2 1.2.1l4.4-2.9c.5-.3.6-.9.3-1.4s-.9-.6-1.4-.3l-1.2.8 2.3-4.6c.5-1.8-1.6-1.4-1.6-1.4l6.1-4.1-2.3 4.6c-.5 1.8 1.6 1.4 1.6 1.4l-1.3.8c-.5.3-.6.9-.3 1.4s.9.6 1.4.3l4-2.7c.4-.2.5-.7.4-1.1s-.6-.6-1-.6zm2-22h2c.6 0 1-.4 1-1s-.4-1-1-1h-2c-.6 0-1 .4-1 1s.4 1 1 1zM16 45h-1v-1c0-.6-.4-1-1-1s-1 .4-1 1v2c0 .6.4 1 1 1h2c.6 0 1-.4 1-1s-.4-1-1-1zm46 16h-2c-.6 0-1 .4-1 1s.4 1 1 1h2c.6 0 1-.4 1-1s-.4-1-1-1z" data-original="#000000"/><path d="M56 61h-4.3c2-1.6 3.3-4.2 3.3-7V18c0-4.6-3.5-8.4-8-8.9V4c0-1.7-1.3-3-3-3H20c-1.7 0-3 1.3-3 3v5.1c-4.5.5-8 4.3-8 8.9v36c0 2.8 1.3 5.3 3.3 7H10c-.6 0-1 .4-1 1s.4 1 1 1h27.3c.6 0 1-.4 1-1s-.4-1-1-1H18c-3.8 0-7-3.1-7-7v-3h42v3c0 3.8-3.1 7-7 7h-5c-.6 0-1 .4-1 1s.4 1 1 1h15c.6 0 1-.4 1-1s-.4-1-1-1zM43 3h1c.6 0 1 .4 1 1v5h-2zm-4 0h2v6h-2zm-4 0h2v6h-2zm-4 0h2v6h-2zm-4 0h2v6h-2zm-4 0h2v6h-2zm-4 1c0-.6.4-1 1-1h1v6h-2zm-8 45V27h3c.6 0 1-.4 1-1s-.4-1-1-1h-3v-7c0-3.8 3.1-7 7-7h28c3.8 0 7 3.1 7 7v7H23.6c-.6 0-1 .4-1 1s.4 1 1 1H53v22zM6 61H2c-.6 0-1 .4-1 1s.4 1 1 1h4c.6 0 1-.4 1-1s-.4-1-1-1z" data-original="#000000"/></g></symbol><symbol viewBox="0 0 511.999 511.999" style="enable-background:new 0 0 512 512" xml:space="preserve" id="cost" xmlns="http://www.w3.org/2000/svg"><g fill="#fff"><path d="M316.209 117.615h.598c.001 0-.465-1.17-.598 0zm-144.462 0h.598c-.133-1.17-.598 0-.598 0z" data-original="#000000"/><path d="M460.496 154.447a23.52 23.52 0 0 0-14.761-10.506l-32.457-7.458 14.986-4.195c12.417-3.475 19.898-16.737 16.417-29.177-3.476-12.417-16.736-19.896-29.178-16.417l-69.876 19.557A23.83 23.83 0 0 0 338.105 98c14.181-26.391 34.612-71.176 34.612-90.443 0-4.699-4.442-8.335-9.051-7.406-27.731 5.602-53.586 8.187-79.011 7.91-26.134-.287-58.659-3.533-79.095-7.893-6.318-1.348-11.388 5.722-8.056 11.276 4.98 8.3 8.031 17.076 9.708 25.921-25.649.786-52.248-2.322-72.38-12.389-5.423-2.712-11.824 2.033-10.832 8 6.332 37.987 19.106 60.259 31.913 77.086h-.284c-13.053 0-23.673 10.62-23.673 23.673 0 12.005 8.985 21.944 20.581 23.465-8.453 14.158-20.525 27.591-33.209 41.687-26.973 29.976-57.546 63.952-67.832 118.811-4.922 26.249-4.758 50.81.489 73.002 4.898 20.718 14.227 39.471 27.726 55.737 17.919 21.592 42.538 38.345 73.172 49.797 27.595 10.315 59.198 15.767 91.394 15.767 32.196 0 63.8-5.452 91.394-15.767 30.634-11.452 55.253-28.206 73.172-49.797 13.499-16.266 22.828-35.018 27.726-55.737 5.246-22.192 5.411-46.754.489-73.002-10.286-54.858-40.858-88.834-67.831-118.81-9.157-10.177-17.869-19.88-25.173-29.728l91.079 20.926c9.649 2.217 19.931-2.004 25.261-10.342 4.878-7.634 4.907-17.629.102-25.297zM284.489 23.17c23.263.254 46.807-1.78 71.676-6.212-4.56 18.643-19.203 51.801-33.092 77.06-9.625.725-17.659 7.227-20.637 16.043H281.46c-.474-1.021-.999-2.14-1.584-3.383-6.486-13.788-19.984-42.478-19.984-66.886 0-4.692-4.431-8.33-9.037-7.408-8.792 1.759-18.465 3.182-28.53 4.074-1.055-6.304-2.692-12.618-5.072-18.828 20.3 3.142 45.871 5.305 67.236 5.54zm48.94 94.445v32.236c0 4.721-3.841 8.563-8.563 8.563s-8.563-3.841-8.563-8.563v-32.236c0-4.722 3.841-8.563 8.563-8.563s8.563 3.842 8.563 8.563zM141.612 44.107c18.888 6.447 42.123 9.306 67.216 8.424l14.974-.946a284.695 284.695 0 0 0 21.448-2.802c2.356 23.374 13.034 47.392 19.522 61.278h-89.577a7.726 7.726 0 0 0-.556-.773c-12.637-15.203-25.46-32.788-33.027-65.181zm216.382 164.886c25.645 28.498 54.708 60.798 64.214 111.487 8.747 46.652.338 85.782-24.993 116.303-31.234 37.635-88.407 60.105-152.937 60.105S122.574 474.419 91.34 436.784c-25.331-30.521-33.739-69.651-24.993-116.303 9.505-50.69 38.57-82.991 64.214-111.488 15.333-17.041 29.819-33.159 39.103-51.586h18.452a7.554 7.554 0 0 0 7.555-7.555 7.554 7.554 0 0 0-7.555-7.555h-32.488c-4.722 0-8.563-3.841-8.563-8.563s3.841-8.563 8.563-8.563h145.564v17.125h-77.064a7.555 7.555 0 0 0 0 15.11h78.307c3.161 9.358 12.018 16.118 22.43 16.118 1.203 0 2.383-.092 3.539-.265 8.432 12.197 18.71 23.644 29.59 35.734zm-9.454-87.866 71.035-19.881c4.498-1.261 9.298 1.449 10.554 5.938 1.258 4.499-1.447 9.297-5.938 10.553l-40.596 11.362a7.506 7.506 0 0 0-.954.346l-34.101-7.835v-.483zm100.239 47.802c-1.058 4.602-5.654 7.487-10.263 6.428l-90.451-20.782a23.73 23.73 0 0 0 .474-4.725v-12.738l93.811 21.554c4.547 1.045 7.474 5.712 6.429 10.263z" data-original="#000000"/><path d="M292.631 310.526c10.831 0 19.644-8.812 19.644-19.644v-12.088c0-28.268-21.084-51.702-48.354-55.4v-13.101c0-10.831-8.812-19.644-19.644-19.644-10.831 0-19.644 8.812-19.644 19.644v14.101c-27.997 6.245-48.354 31.134-48.354 60.444 0 34.161 27.792 61.953 61.953 61.953h12.088c12.497 0 22.666 10.167 22.666 22.666s-10.168 22.666-22.666 22.666h-18.133c-9.166 0-16.622-7.457-16.622-16.622 0-10.831-8.812-19.644-19.644-19.644-10.831 0-19.644 8.812-19.644 19.644 0 28.268 21.084 51.702 48.354 55.4v13.101c0 10.831 8.812 19.644 19.644 19.644 10.831 0 19.644-8.812 19.644-19.644v-14.101c27.997-6.245 48.354-31.134 48.354-60.444 0-34.161-27.792-61.953-61.953-61.953h-12.088c-12.497 0-22.666-10.167-22.666-22.666s10.168-22.666 22.666-22.666h18.133c9.166 0 16.622 7.457 16.622 16.622v12.088c0 10.831 8.813 19.644 19.644 19.644zm-36.265-63.464h-18.133c-20.83 0-37.776 16.946-37.776 37.776 0 20.83 16.946 37.776 37.776 37.776h12.088c25.83 0 46.843 21.014 46.843 46.843 0 23.899-17.899 43.908-41.632 46.545a7.555 7.555 0 0 0-6.721 7.509v20.491c0 2.499-2.034 4.533-4.533 4.533s-4.533-2.034-4.533-4.533v-20.147a7.554 7.554 0 0 0-7.555-7.555c-22.497 0-40.798-18.302-40.798-40.798 0-2.499 2.034-4.533 4.533-4.533s4.533 2.034 4.533 4.533c0 17.497 14.235 31.732 31.732 31.732h18.133c20.83 0 37.776-16.946 37.776-37.776s-16.946-37.776-37.776-37.776h-12.088c-25.83 0-46.843-21.014-46.843-46.843 0-23.899 17.899-43.908 41.632-46.545a7.555 7.555 0 0 0 6.721-7.509v-20.491c0-2.499 2.034-4.533 4.533-4.533s4.533 2.034 4.533 4.533v20.147a7.554 7.554 0 0 0 7.555 7.555c22.497 0 40.798 18.302 40.798 40.798v12.088c0 2.499-2.034 4.533-4.533 4.533s-4.533-2.034-4.533-4.533v-12.088c0-17.497-14.235-31.732-31.732-31.732z" data-original="#000000"/></g></symbol><symbol viewBox="0 0 231.523 231.523" xml:space="preserve" id="empty-cart" xmlns="http://www.w3.org/2000/svg"><path d="M107.415 145.798a7.502 7.502 0 0 0 8.231 6.69 7.5 7.5 0 0 0 6.689-8.231l-3.459-33.468a7.5 7.5 0 0 0-14.92 1.542l3.459 33.467zM154.351 152.488a7.501 7.501 0 0 0 8.231-6.69l3.458-33.468a7.499 7.499 0 0 0-6.689-8.231c-4.123-.421-7.806 2.57-8.232 6.689l-3.458 33.468a7.5 7.5 0 0 0 6.69 8.232zM96.278 185.088c-12.801 0-23.215 10.414-23.215 23.215 0 12.804 10.414 23.221 23.215 23.221s23.216-10.417 23.216-23.221c0-12.801-10.415-23.215-23.216-23.215zm0 31.435c-4.53 0-8.215-3.688-8.215-8.221 0-4.53 3.685-8.215 8.215-8.215 4.53 0 8.216 3.685 8.216 8.215 0 4.533-3.686 8.221-8.216 8.221zM173.719 185.088c-12.801 0-23.216 10.414-23.216 23.215 0 12.804 10.414 23.221 23.216 23.221 12.802 0 23.218-10.417 23.218-23.221 0-12.801-10.416-23.215-23.218-23.215zm0 31.435c-4.53 0-8.216-3.688-8.216-8.221 0-4.53 3.686-8.215 8.216-8.215 4.531 0 8.218 3.685 8.218 8.215 0 4.533-3.686 8.221-8.218 8.221z"/><path d="M218.58 79.08a7.5 7.5 0 0 0-5.933-2.913H63.152l-6.278-24.141a7.5 7.5 0 0 0-7.259-5.612H18.876a7.5 7.5 0 0 0 0 15h24.94l6.227 23.946c.031.134.066.267.104.398l23.157 89.046a7.5 7.5 0 0 0 7.259 5.612h108.874a7.5 7.5 0 0 0 7.259-5.612l23.21-89.25a7.502 7.502 0 0 0-1.326-6.474zm-34.942 86.338H86.362l-19.309-74.25h135.895l-19.31 74.25zM105.556 52.851a7.478 7.478 0 0 0 5.302 2.195 7.5 7.5 0 0 0 5.302-12.805L92.573 18.665a7.501 7.501 0 0 0-10.605 10.609l23.588 23.577zM159.174 55.045c1.92 0 3.841-.733 5.306-2.199l23.552-23.573a7.5 7.5 0 0 0-.005-10.606 7.5 7.5 0 0 0-10.606.005l-23.552 23.573a7.5 7.5 0 0 0 5.305 12.8zM135.006 48.311h.002a7.5 7.5 0 0 0 7.5-7.498l.008-33.311A7.5 7.5 0 0 0 135.018 0h-.001a7.5 7.5 0 0 0-7.501 7.498l-.008 33.311a7.5 7.5 0 0 0 7.498 7.502z"/></symbol><symbol viewBox="0 0 682.667 682.667" style="enable-background:new 0 0 512 512" xml:space="preserve" id="lab" xmlns="http://www.w3.org/2000/svg"><defs><clipPath id="fa" clipPathUnits="userSpaceOnUse"><path d="M0 512h512V0H0Z" fill="#fff" data-original="#000000"/></clipPath></defs><path d="m0 0 25.937-5.019" style="stroke-width:15;stroke-linecap:round;stroke-linejoin:round;stroke-miterlimit:10;stroke-dasharray:none;stroke-opacity:1" transform="matrix(1.33333 0 0 -1.33333 378.402 140.566)" fill="none" stroke="#fff" stroke-width="15" stroke-linecap="round" stroke-linejoin="round" stroke-miterlimit="10" data-original="#000000"/><path d="m0 0-11.6-107.36" style="stroke-width:15;stroke-linecap:round;stroke-linejoin:round;stroke-miterlimit:10;stroke-dasharray:none;stroke-opacity:1" transform="matrix(1.33333 0 0 -1.33333 573.12 178.294)" fill="none" stroke="#fff" stroke-width="15" stroke-linecap="round" stroke-linejoin="round" stroke-miterlimit="10" data-original="#000000"/><path d="m0 0-33.788 6.55" style="stroke-width:15;stroke-linecap:round;stroke-linejoin:round;stroke-miterlimit:10;stroke-dasharray:none;stroke-opacity:1" transform="matrix(1.33333 0 0 -1.33333 573.121 178.298)" fill="none" stroke="#fff" stroke-width="15" stroke-linecap="round" stroke-linejoin="round" stroke-miterlimit="10" data-original="#000000"/><g clip-path="url(#fa)" transform="matrix(1.33333 0 0 -1.33333 0 682.667)" fill="none" stroke="#fff" stroke-width="15" stroke-linecap="round" stroke-linejoin="round" stroke-miterlimit="10"><path d="M0 0v34.083h-33.307l-16.355-9.215" style="stroke-width:15;stroke-linecap:round;stroke-linejoin:round;stroke-miterlimit:10;stroke-dasharray:none;stroke-opacity:1" transform="translate(227.648 454.411)" data-original="#000000"/><path d="m0 0 5.584 28.752c.567 2.893-1.36 5.756-4.252 6.295L-80.39 50.898c-2.891.567-5.726-1.361-6.293-4.253l-5.612-28.753" style="stroke-width:15;stroke-linecap:round;stroke-linejoin:round;stroke-miterlimit:10;stroke-dasharray:none;stroke-opacity:1" transform="translate(415.441 448.003)" data-original="#000000"/><path d="M0 0h23.357C32.286 0 39.6-7.316 39.6-16.276v-16.248h-55.842v16.248C-16.242-7.316-8.929 0 0 0Z" style="stroke-width:15;stroke-linecap:round;stroke-linejoin:round;stroke-miterlimit:10;stroke-dasharray:none;stroke-opacity:1" transform="translate(215.969 454.411)" data-original="#000000"/><path d="M0 0c6.43 17.57 24.91 24.2 43.2 20.19 11.9-2.02 67.55-12.68 77.58-14.72 10.09-1.84 65.68-12.76 77.5-15.34 19.42-3.26 34.699-17.55 32.29-37.85L214.95-180.6" style="stroke-width:15;stroke-linecap:round;stroke-linejoin:round;stroke-miterlimit:10;stroke-dasharray:none;stroke-opacity:1" transform="translate(248.54 451.52)" data-original="#000000"/><path d="m0 0-9.638 19.508C32.201 48.091 24.689 68.535 48.67 80.274c23.925 11.91 35.547-6.522 83.679 9.301l13.946-28.27c10.034-20.331 8.702-42.392.226-61.305" style="stroke-width:15;stroke-linecap:round;stroke-linejoin:round;stroke-miterlimit:10;stroke-dasharray:none;stroke-opacity:1" transform="translate(82.288 270.922)" data-original="#000000"/><path d="M0 0c19.048 20.501 18.595 36.749 37.615 46.078 24.35 12.108 31.407-9.216 80.39 6.861" style="stroke-width:15;stroke-linecap:round;stroke-linejoin:round;stroke-miterlimit:10;stroke-dasharray:none;stroke-opacity:1" transform="translate(114.036 270.922)" data-original="#000000"/><path d="M0 0c-2.806 3.885-5.386 8.167-7.682 12.845-12.586 25.492 16.498 39.84 29.083 14.348l3.743-7.599" style="stroke-width:15;stroke-linecap:round;stroke-linejoin:round;stroke-miterlimit:10;stroke-dasharray:none;stroke-opacity:1" transform="translate(47.507 270.837)" data-original="#000000"/><path d="M0 0c13.663 32.184 27.581 68.989 8.107 108.46-12.784 25.946-42.378 11.342-29.593-14.603l3.827-7.741" style="stroke-width:15;stroke-linecap:round;stroke-linejoin:round;stroke-miterlimit:10;stroke-dasharray:none;stroke-opacity:1" transform="translate(230.964 276.281)" data-original="#000000"/><path d="m0 0-36.14-150.68" style="stroke-width:15;stroke-linecap:round;stroke-linejoin:round;stroke-miterlimit:10;stroke-dasharray:none;stroke-opacity:1" transform="translate(368.22 457.22)" data-original="#000000"/><path d="M0 0v57.42c0 5.927 4.847 10.747 10.743 10.747h84.302c5.895 0 10.743-4.82 10.743-10.747V-82.798" style="stroke-width:15;stroke-linecap:round;stroke-linejoin:round;stroke-miterlimit:10;stroke-dasharray:none;stroke-opacity:1" transform="translate(174.754 353.72)" data-original="#000000"/><path d="M0 0h-207.467c-2.579 0-5.725-2.07-7.029-4.65l-33.449-65.615c-1.276-2.552-.255-4.651 2.296-4.651h202.846c2.551 0 5.698 2.099 7.001 4.651z" style="stroke-width:15;stroke-linecap:round;stroke-linejoin:round;stroke-miterlimit:10;stroke-dasharray:none;stroke-opacity:1" transform="translate(255.994 270.922)" data-original="#000000"/><path d="m0 0-74.04-.028c-2.552 0-5.727 2.098-7.03 4.65l-35.801 70.265H90.623c2.551 0 5.697-2.07 7.002-4.65l33.448-65.615c1.304-2.552.255-4.65-2.296-4.65L34.64 0" style="stroke-width:15;stroke-linecap:round;stroke-linejoin:round;stroke-miterlimit:10;stroke-dasharray:none;stroke-opacity:1" transform="translate(372.865 196.035)" data-original="#000000"/><path d="M0 0v89.122m452.633 0V-89.15c0-2.58-2.126-4.735-4.735-4.735H4.733C2.126-93.885 0-91.73 0-89.15v54.5" style="stroke-width:15;stroke-linecap:round;stroke-linejoin:round;stroke-miterlimit:10;stroke-dasharray:none;stroke-opacity:1" transform="translate(29.678 106.885)" data-original="#000000"/><path d="M0 0v-257.922" style="stroke-width:15;stroke-linecap:round;stroke-linejoin:round;stroke-miterlimit:10;stroke-dasharray:none;stroke-opacity:1" transform="translate(255.994 270.922)" data-original="#000000"/></g></symbol><symbol viewBox="0 0 682.667 682.667" style="enable-background:new 0 0 512 512" xml:space="preserve" id="paper" xmlns="http://www.w3.org/2000/svg"><defs><clipPath id="ga" clipPathUnits="userSpaceOnUse"><path d="M0 512h512V0H0Z" fill="#fff" data-original="#000000"/></clipPath></defs><g clip-path="url(#ga)" transform="matrix(1.33333 0 0 -1.33333 0 682.667)" fill="none" stroke="#fff" stroke-width="15" stroke-linecap="round" stroke-linejoin="round" stroke-miterlimit="10"><path d="M0 0v-319.63c0-3.391 2.75-6.141 6.13-6.141H234.2" style="stroke-width:15;stroke-linecap:round;stroke-linejoin:round;stroke-miterlimit:10;stroke-dasharray:none;stroke-opacity:1" transform="translate(46.48 405.75)" data-original="#000000"/><path d="M0 0v57.61c0 3.39 2.75 6.14 6.13 6.14h301.9c3.39 0 6.14-2.75 6.14-6.14v-283" style="stroke-width:15;stroke-linecap:round;stroke-linejoin:round;stroke-miterlimit:10;stroke-dasharray:none;stroke-opacity:1" transform="translate(46.48 440.75)" data-original="#000000"/><path d="M0 0h27.283c1.042 0 1.886.845 1.886 1.886v27.283a2.83 2.83 0 0 0 2.83 2.829h27.768a2.83 2.83 0 0 0 2.83-2.829V1.886C62.597.845 63.441 0 64.483 0h27.283a2.829 2.829 0 0 0 2.829-2.829v-27.769a2.829 2.829 0 0 0-2.829-2.829H64.483a1.885 1.885 0 0 1-1.886-1.886v-27.284a2.83 2.83 0 0 0-2.83-2.829H31.999a2.83 2.83 0 0 0-2.83 2.829v27.284a1.885 1.885 0 0 1-1.886 1.886H0a2.83 2.83 0 0 0-2.829 2.829v27.769A2.83 2.83 0 0 0 0 0Z" style="stroke-width:15;stroke-linecap:round;stroke-linejoin:round;stroke-miterlimit:10;stroke-dasharray:none;stroke-opacity:1" transform="translate(157.68 435.709)" data-original="#000000"/><path d="M0 0v-23.169a5 5 0 0 0-5-5h-191.47a5 5 0 0 0-5 5V0a5 5 0 0 0 5 5H-5a5 5 0 0 0 5-5Z" style="stroke-width:15;stroke-linecap:round;stroke-linejoin:round;stroke-miterlimit:10;stroke-dasharray:none;stroke-opacity:1" transform="translate(304.298 311.784)" data-original="#000000"/><path d="M0 0h-13.493" style="stroke-width:15;stroke-linecap:round;stroke-linejoin:round;stroke-miterlimit:10;stroke-dasharray:none;stroke-opacity:1" transform="translate(287.58 240.787)" data-original="#000000"/><path d="M0 0h-67.299" style="stroke-width:15;stroke-linecap:round;stroke-linejoin:round;stroke-miterlimit:10;stroke-dasharray:none;stroke-opacity:1" transform="translate(186.845 240.787)" data-original="#000000"/><path d="M0 0h-13.493" style="stroke-width:15;stroke-linecap:round;stroke-linejoin:round;stroke-miterlimit:10;stroke-dasharray:none;stroke-opacity:1" transform="translate(287.58 197.397)" data-original="#000000"/><path d="M0 0h-67.299" style="stroke-width:15;stroke-linecap:round;stroke-linejoin:round;stroke-miterlimit:10;stroke-dasharray:none;stroke-opacity:1" transform="translate(186.845 197.397)" data-original="#000000"/><path d="M0 0h-13.493" style="stroke-width:15;stroke-linecap:round;stroke-linejoin:round;stroke-miterlimit:10;stroke-dasharray:none;stroke-opacity:1" transform="translate(287.58 154.006)" data-original="#000000"/><path d="M0 0h-67.299" style="stroke-width:15;stroke-linecap:round;stroke-linejoin:round;stroke-miterlimit:10;stroke-dasharray:none;stroke-opacity:1" transform="translate(186.845 154.006)" data-original="#000000"/><path d="M0 0v-33.169" style="stroke-width:15;stroke-linecap:round;stroke-linejoin:round;stroke-miterlimit:10;stroke-dasharray:none;stroke-opacity:1" transform="translate(203.563 316.784)" data-original="#000000"/><path d="m0 0-41.573-72.008" style="stroke-width:15;stroke-linecap:round;stroke-linejoin:round;stroke-miterlimit:10;stroke-dasharray:none;stroke-opacity:1" transform="translate(425.589 137.81)" data-original="#000000"/><path d="m0 0-2.474-4.284C-15.809-27.381-45.343-35.295-68.438-21.96-91.535-8.625-99.449 20.908-86.114 44.005l61.289 106.157" style="stroke-width:15;stroke-linecap:round;stroke-linejoin:round;stroke-miterlimit:10;stroke-dasharray:none;stroke-opacity:1" transform="translate(366.773 35.938)" data-original="#000000"/><path d="m0 0 25.562 44.275c4.561 7.899 14.661 10.605 22.559 6.044l44.652-25.78c7.899-4.56 10.605-14.659 6.045-22.559L73.256-42.294" style="stroke-width:15;stroke-linecap:round;stroke-linejoin:round;stroke-miterlimit:10;stroke-dasharray:none;stroke-opacity:1" transform="translate(364.487 213.147)" data-original="#000000"/><path d="M0 0h111.521" style="stroke-width:15;stroke-linecap:round;stroke-linejoin:round;stroke-miterlimit:10;stroke-dasharray:none;stroke-opacity:1" transform="translate(299.294 112.219)" data-original="#000000"/><path d="m0 0 93.889-54.207c6.84-3.948 15.585-1.606 19.534 5.234l3.047 5.278c3.948 6.84 1.605 15.585-5.235 19.534L17.347 30.045c-6.839 3.949-15.585 1.605-19.534-5.233l-3.046-5.279C-9.183 12.694-6.839 3.948 0 0Z" style="stroke-width:15;stroke-linecap:round;stroke-linejoin:round;stroke-miterlimit:10;stroke-dasharray:none;stroke-opacity:1" transform="translate(336.824 189.058)" data-original="#000000"/></g></symbol><symbol id="product-range1" viewBox="0 0 215 215" style="enable-background:new 0 0 215 215" xml:space="preserve" xmlns="http://www.w3.org/2000/svg"><style>.hst0{fill:#fab214}</style><path d="M27.45 32.23c3.09 6.49 6.11 12.9 9.23 19.25.27.55 1.24 1.06 1.89 1.06 12.15.06 24.29.07 36.44-.01.62 0 1.55-.76 1.82-1.38 3.44-8.22 10.3-12.37 19.05-11.23 1.57.2 2.24-.3 2.97-1.57C105.21 27.2 111.68 16.12 118 4.96c1.36-2.4 3.11-3.35 5.84-3.34 18.71.07 37.42.08 56.13 0 2.83-.01 4.59 1.01 5.99 3.47a7063.67 7063.67 0 0 0 27.93 48.45c1.42 2.43 1.47 4.51.04 6.95-6.34 10.81-12.56 21.68-18.82 32.53-.45.78-.88 1.58-1.29 2.33 6.19 7.99 5.6 16.97-.66 24.21l9.21 16c3.84 6.67 7.63 13.38 11.57 19.98 1.46 2.44 1.37 4.53-.04 6.95-9.4 16.18-18.74 32.4-28.03 48.65-1.36 2.37-3.14 3.37-5.86 3.36-18.71-.06-37.42-.06-56.13 0-2.73.01-4.5-1-5.85-3.38-6.37-11.22-12.87-22.37-19.27-33.58-.68-1.19-1.29-1.71-2.8-1.45-8.06 1.41-15.78-3-18.82-10.77-.61-1.57-1.39-1.96-2.96-1.95-11.69.06-23.39.06-35.08-.01-1.52-.01-2.29.49-2.93 1.83-2.37 4.88-4.85 9.7-7.33 14.62 3.59 3.12 5.88 6.89 6.49 11.63 1.2 9.31-5.47 17.89-15.08 19.3C11.19 212.1 2.44 205.43.89 196c-1.47-8.95 4.93-17.99 13.87-19.59 1.04-.18 2.15-.53 3.13-.32 2.31.48 3.27-.58 4.17-2.53 1.95-4.25 4.11-8.4 6.31-12.53.72-1.36.67-2.38-.1-3.7-8.82-15.21-17.54-30.48-26.39-45.68-1.46-2.51-1.52-4.62-.04-7.15 8.84-15.2 17.55-30.47 26.37-45.69.79-1.37.96-2.42.21-3.91-2.96-5.94-5.79-11.95-8.6-17.96-.54-1.16-1.13-1.63-2.51-1.64C7.87 35.23.46 27.94.01 18.44-.41 9.4 6.75 1.42 16.06.55c8.84-.82 17.09 5.74 18.53 14.76.99 6.14-1.28 11.6-7.14 16.92zm124.44 173.25c8.37 0 16.74-.02 25.11.02 1.26.01 2.01-.31 2.69-1.49a7537.88 7537.88 0 0 1 25.08-43.53c.67-1.15.59-1.97-.05-3.08-6.14-10.56-12.26-21.14-18.29-31.77-.78-1.37-1.56-1.59-3.03-1.4-8.18 1.02-15.07-2.83-18.52-10.34-.56-1.22-1.23-1.44-2.4-1.44-11.84.03-23.68.04-35.51-.01-1.41-.01-2.13.49-2.81 1.68a4711.9 4711.9 0 0 1-17.74 30.78c-.69 1.19-.77 1.95.19 3.14 5.27 6.56 5.27 15.3-.01 21.92-.95 1.19-.84 1.98-.15 3.16 5.95 10.24 11.86 20.5 17.72 30.79.69 1.22 1.47 1.62 2.84 1.61 8.29-.07 16.58-.04 24.88-.04zm-75.75-50.91c.21-.36.41-.61.49-.89 2.63-8.51 12.07-13.57 19.77-11.84.6.13 1.73-.47 2.07-1.05 6.1-10.42 12.13-20.88 18.09-31.39.39-.68.43-1.95.06-2.61-5.98-10.57-12.05-21.11-18.17-31.6-.33-.56-1.41-1.09-2.06-1-8.6 1.22-16.29-3.03-19.43-11.02-.52-1.31-1.14-1.67-2.45-1.67-11.92.04-23.84.05-35.76-.01-1.39-.01-2.14.47-2.82 1.67-8.24 14.42-16.51 28.81-24.84 43.17-.76 1.32-.68 2.21.05 3.46 7.58 13.05 15.32 26.02 22.5 39.29 2.34 4.31 4.87 5.8 9.73 5.61 10.91-.41 21.86-.12 32.77-.12zm109.04-64.91c.15.33.3.65.45.98.52-.57 1.18-1.06 1.55-1.71 5.87-10.12 11.73-20.25 17.5-30.42.41-.73.47-2.09.06-2.8C196.4 41.08 188 26.5 179.52 11.96c-.42-.71-1.6-1.38-2.44-1.39-16.75-.08-33.5-.08-50.25 0-.83 0-2.02.67-2.44 1.38-6.11 10.42-12.11 20.9-18.17 31.34-.58.99-.55 1.6.2 2.55 5.49 6.97 5.52 15.3.08 22.3-.79 1.02-.84 1.69-.21 2.77 6.03 10.38 11.98 20.8 18.05 31.15.42.72 1.58 1.42 2.4 1.42 11.77.09 23.54.05 35.31.09 1.27 0 1.8-.39 2.21-1.64 1.89-5.78 5.8-9.78 11.62-11.39 2.96-.81 6.19-.62 9.3-.88zm-91.9 77.76c4.71-.04 8.49-3.91 8.38-8.58-.1-4.68-3.97-8.37-8.69-8.29-4.58.08-8.29 3.89-8.26 8.48.03 4.69 3.85 8.44 8.57 8.39zM18.13 201.9a8.398 8.398 0 0 0 8.43-8.51c-.04-4.6-3.78-8.34-8.36-8.37-4.74-.04-8.49 3.67-8.51 8.42-.03 4.76 3.68 8.47 8.44 8.46zm-.71-175.54c4.73-.01 8.46-3.79 8.41-8.52-.05-4.64-3.73-8.32-8.36-8.35-4.72-.03-8.54 3.72-8.55 8.41-.01 4.69 3.78 8.47 8.5 8.46zM93.2 65.48c4.72-.02 8.52-3.84 8.46-8.52-.06-4.65-3.98-8.48-8.62-8.41-4.57.07-8.3 3.85-8.34 8.45-.02 4.68 3.8 8.5 8.5 8.48zm79.15 41.62c.02 4.68 3.87 8.54 8.51 8.5 4.7-.04 8.42-3.85 8.37-8.6-.05-4.61-3.77-8.34-8.37-8.37-4.67-.04-8.52 3.79-8.51 8.47z"/><path class="hst0" d="M151.94 196.58c-5.96 0-11.92-.07-17.88.03-2.63.04-4.38-.91-5.68-3.24-3.53-6.33-7.23-12.56-10.8-18.86-1.83-3.24-.33-6.71 3.01-7.1 2.23-.26 3.69.9 4.76 2.76 3.03 5.31 6.13 10.58 9.12 15.91.67 1.19 1.42 1.68 2.82 1.67 9.81-.06 19.62-.06 29.42 0 1.31.01 2.02-.44 2.65-1.56 4.89-8.59 9.82-17.16 14.8-25.7.67-1.15.59-1.97-.05-3.05-3.29-5.59-6.52-11.22-9.74-16.86-1.42-2.49-1.07-4.82.83-6.3 2.04-1.58 4.96-1.27 6.33 1.04 4.28 7.2 8.48 14.45 12.49 21.8.59 1.09.44 3.12-.2 4.25-6.17 10.99-12.51 21.88-18.8 32.8-1.06 1.85-2.72 2.44-4.76 2.43-6.1-.05-12.21-.03-18.32-.02zM56.37 145.58c-3.77 0-7.54-.02-11.32.01-2.01.02-3.47-.82-4.46-2.55-6.21-10.79-12.41-21.59-18.64-32.37-1.05-1.82-1.02-3.52.03-5.33 6.2-10.71 12.37-21.44 18.51-32.18 1.09-1.91 2.65-2.76 4.81-2.76 7.32.02 14.64-.01 21.95.02 3.29.01 5.38 1.86 5.32 4.58-.06 2.63-2.12 4.36-5.28 4.36-6.11.02-12.22.04-18.33-.02-1.29-.01-2 .4-2.65 1.53-4.85 8.53-9.74 17.03-14.68 25.51-.69 1.18-.73 2.08-.02 3.28 4.91 8.4 9.78 16.84 14.57 25.31.75 1.32 1.6 1.71 3.04 1.69 5.96-.08 11.92-.03 17.88-.04 1.99 0 3.76.41 4.84 2.29 1.7 2.97-.28 6.53-3.81 6.64-3.91.11-7.84.03-11.76.03zM151.9 19.5c6.11 0 12.22.05 18.33-.03 2.38-.03 3.97.92 5.14 2.97 6.03 10.54 12.1 21.06 18.2 31.56 1.18 2.03 1.27 3.9.06 5.95-3.51 5.98-6.93 12.02-10.43 18.02-1.43 2.45-3.45 3.33-5.64 2.57-2.72-.94-3.79-3.95-2.24-6.7 2.85-5.06 5.74-10.1 8.72-15.08.76-1.27.72-2.2-.02-3.46-4.88-8.33-9.69-16.7-14.47-25.1-.71-1.25-1.48-1.79-2.99-1.78-9.8.08-19.61.06-29.41.01-1.29-.01-2.02.39-2.67 1.53-3.07 5.46-6.22 10.87-9.36 16.29-1.05 1.82-2.64 2.64-4.74 2.33-1.94-.29-3.22-1.51-3.51-3.35-.18-1.09.06-2.46.61-3.43 3.72-6.65 7.57-13.23 11.37-19.83 1-1.74 2.5-2.49 4.49-2.48 6.19.03 12.37.01 18.56.01z"/></symbol><symbol viewBox="0 0 215 215" style="enable-background:new 0 0 215 215" xml:space="preserve" id="product-range2" xmlns="http://www.w3.org/2000/svg"><path d="M105.03 213.35c-.58-.18-1.15-.37-1.74-.53-9.07-2.42-14.38-11.43-12.18-20.67.09-.4.21-.79.39-1.43-15.9-9.2-31.82-18.41-47.28-27.36-3.14 1.73-5.83 3.8-8.87 4.76-8.85 2.82-18.17-2.4-20.87-11.3-2.66-8.79 2.14-18.14 10.96-20.92 1.77-.56 2.13-1.33 2.12-3-.05-17.01-.05-34.03 0-51.04 0-1.54-.35-2.23-1.94-2.71-6.64-2-11.38-8.03-11.8-14.68-.45-7.27 3.17-13.62 9.51-16.69 6.21-3.01 13.7-1.94 18.78 2.84 1.15 1.08 1.87 1.19 3.28.37C60.1 42.4 74.86 33.9 89.61 25.36c.59-.34 1.17-.7 1.22-.73 0-3.18-.39-6.03.07-8.73 1.28-7.48 5.87-12.04 13.19-13.88.32-.08.62-.24.94-.37h4.95c1.42.47 2.89.84 4.26 1.43 7.65 3.35 11.57 11.38 9.6 19.77-.25 1.07-.13 1.57.84 2.12 15.54 8.95 31.05 17.94 46.12 26.66 3.14-1.73 5.82-3.8 8.86-4.77 8.76-2.82 18 2.29 20.8 11.1 2.78 8.78-1.91 18.18-10.68 21.05-1.84.6-2.36 1.37-2.35 3.27.08 16.94.07 33.89.02 50.83 0 1.53.35 2.2 1.93 2.72 6.68 2.19 10.74 6.9 11.69 13.85.92 6.77-1.65 12.28-7.23 16.27-2.1 1.5-4.32.97-5.12-1.13-.7-1.83.26-2.97 1.64-4 4.06-3.02 5.61-7.45 4.24-11.99-1.34-4.45-5.29-7.46-9.96-7.6-4.65-.14-8.72 2.64-10.35 7.06-1.59 4.3-.31 9 3.25 11.93.48.39 1.03.7 1.48 1.11 1.3 1.17 1.57 2.56.68 4.08-.83 1.41-2.65 1.89-4.15.94-1.44-.9-2.73-2.05-4.28-3.24-4.67 2.7-9.47 5.48-14.27 8.25-10.59 6.12-21.16 12.27-31.77 18.35-1.23.71-1.66 1.27-1.3 2.85 2.16 9.43-3.53 18.24-13 20.42-.32.07-.62.25-.93.37h-4.97zM94.71 29.77c-.25.05-.4.05-.51.12-15.47 8.94-30.93 17.89-46.42 26.8-1.15.66-.94 1.38-.7 2.39 2.09 8.88-2.93 17.62-11.69 20.19-1.34.39-1.7.93-1.69 2.24.04 17.29.04 34.58-.01 51.88 0 1.45.44 1.95 1.82 2.37 8.58 2.58 13.63 11.15 11.6 19.86-.42 1.8.16 2.39 1.5 3.15 12.63 7.26 25.23 14.57 37.84 21.86 2.72 1.57 5.45 3.13 8.21 4.72 3.55-3.82 7.77-5.87 12.86-5.89 5.17-.02 9.4 2.18 12.88 5.86.39-.21.64-.32.87-.46 15.29-8.84 30.57-17.7 45.87-26.5 1.11-.64 1.03-1.29.78-2.35-2.1-9.01 2.94-17.72 11.8-20.32 1.25-.37 1.6-.87 1.6-2.11-.04-17.36-.04-34.72 0-52.08 0-1.32-.38-1.84-1.71-2.23-8.74-2.57-13.8-11.33-11.65-20.2.33-1.36.05-1.93-1.09-2.59-8.59-4.91-17.14-9.89-25.71-14.85-6.89-3.99-13.78-7.97-20.62-11.93-9.86 7.84-17.51 7.85-25.83.07zm23.52-11.11c.03-5.93-4.8-10.8-10.72-10.8-5.84 0-10.66 4.75-10.73 10.58-.07 5.94 4.71 10.86 10.61 10.91 5.92.05 10.81-4.77 10.84-10.69zm-10.74 188.48c5.91 0 10.75-4.86 10.73-10.79-.02-5.84-4.79-10.65-10.61-10.7-5.93-.05-10.81 4.76-10.83 10.68-.03 5.94 4.8 10.81 10.71 10.81zm87.54-144.05c.01-6-4.72-10.76-10.7-10.77-5.9-.01-10.78 4.89-10.74 10.79.04 5.85 4.8 10.61 10.66 10.66 5.98.04 10.77-4.69 10.78-10.68zm-175.06-.05c0 6 4.76 10.75 10.74 10.72 5.85-.02 10.63-4.76 10.7-10.61.07-5.91-4.74-10.78-10.69-10.82-5.97-.04-10.75 4.72-10.75 10.71zm0 88.84c-.03 6 4.68 10.77 10.67 10.78 5.92.02 10.78-4.84 10.76-10.76-.02-5.84-4.77-10.61-10.63-10.67-5.97-.06-10.77 4.67-10.8 10.65z"/><path d="M152.89 84.85c-3.52 2.03-6.75 3.83-9.89 5.78-.46.29-.68 1.28-.68 1.94-.05 5.79-.1 11.58 0 17.36.05 3.02-1.12 5.12-3.76 6.55-2.78 1.51-5.48 3.15-8.23 4.72-4.23 2.41-7.61.5-7.63-4.33-.02-4.68 0-9.37 0-14.31-.63.26-1.12.41-1.56.66-2.74 1.57-5.39 3.35-8.24 4.68-1.98.93-2.34 2.19-2.33 4.17.07 14.47.04 28.94.04 43.4v2.77c.93-.48 1.52-.75 2.08-1.08 12.61-7.29 25.21-14.61 37.85-21.85 1.76-1.01 2.56-2.2 2.49-4.27-.13-3.99-.07-7.99-.02-11.99.02-1.69.83-3.16 2.57-3.17 1.09-.01 2.3.85 3.21 1.61.43.36.36 1.41.37 2.15.03 4-.05 7.99.03 11.99s-1.69 6.79-5.1 8.76c-12.39 7.13-24.75 14.3-37.13 21.46-1.72 1-3.43 2.04-5.19 2.97-2.88 1.52-5.84 1.56-8.67-.07-14.29-8.23-28.57-16.49-42.83-24.77-2.97-1.72-4.44-4.39-4.44-7.87.01-16.4.01-32.79 0-49.19 0-3.57 1.54-6.23 4.59-7.99 14.15-8.2 28.31-16.38 42.48-24.56 3.05-1.76 6.16-1.76 9.21 0 14.17 8.17 28.33 16.36 42.48 24.56 3.04 1.76 4.6 4.43 4.59 7.99-.02 6.96.01 13.92-.01 20.88-.01 2.24-1.23 3.65-3.05 3.65-1.81.01-3.1-1.41-3.12-3.63-.04-5.65-.01-11.3-.02-16.95-.01-.55-.05-1.1-.09-2.02zm-48.73 73.25c.11-.49.22-.74.22-1 .01-15.57.03-31.14-.03-46.7 0-.62-.64-1.47-1.22-1.81-12.88-7.51-25.79-14.97-38.7-22.43-.69-.4-1.41-.76-2.31-1.23-.04.86-.1 1.46-.1 2.07 0 14.67.03 29.35-.04 44.02-.01 2.05.68 3.26 2.47 4.28 12.64 7.23 25.24 14.56 37.85 21.85.57.31 1.16.59 1.86.95zM65.11 79.39c13.89 8.03 27.37 15.84 40.9 23.59.68.39 1.88.56 2.52.22 3.66-1.94 7.22-4.06 10.85-6.15-.2-.24-.23-.31-.29-.34-13.65-7.94-27.3-15.89-40.97-23.8-.44-.25-1.23-.32-1.65-.09-3.7 2.09-7.35 4.24-11.36 6.57zm32-18.52c.22.28.25.35.31.39 13.64 7.94 27.28 15.88 40.94 23.78.4.23 1.11.33 1.47.13 3.28-1.82 6.51-3.72 9.75-5.6-.16-.3-.19-.47-.29-.52-13.42-7.78-26.83-15.56-40.3-23.26-.75-.43-2.1-.44-2.87-.04-3.04 1.56-5.97 3.36-9.01 5.12zM83.42 68.8c13.99 8.11 27.71 16.07 41.45 24 .4.23 1.11.36 1.48.17 2.17-1.16 4.27-2.43 6.6-3.78-.36-.25-.52-.38-.69-.47-13.54-7.86-27.08-15.73-40.64-23.55-.47-.27-1.35-.27-1.84-.01-2.05 1.07-4.04 2.3-6.36 3.64zm52.66 25.77c-2.43 1.4-4.56 2.6-6.65 3.87-.28.17-.52.66-.52 1.01-.03 4.99-.02 9.98-.02 15.43 2.47-1.44 4.59-2.64 6.67-3.91.28-.17.5-.68.5-1.03.03-5 .02-10 .02-15.37z" style="fill:#fab214"/></symbol><symbol id="product-range3" viewBox="0 0 215 215" style="enable-background:new 0 0 215 215" xml:space="preserve" xmlns="http://www.w3.org/2000/svg"><style>.jst0{fill:#fab214}</style><path d="M84.13 21.19c-2.67 0-5.11.02-7.54 0-6.53-.05-11.31-4.56-11.28-10.62C65.34 4.46 70.08.01 76.63.01 97.29 0 117.95 0 138.61.01c6.51 0 11.31 4.51 11.33 10.58.01 6.04-4.81 10.55-11.32 10.6-2.44.02-4.87 0-7.44 0-.04.93-.1 1.63-.1 2.34-.01 12.93.04 25.86-.02 38.8-.03 6.27 2.65 10.46 8.31 13.44 28.01 14.75 42.34 38.09 41.31 69.75-1.18 36.35-30.17 65.96-66.49 69.19-38.98 3.47-74.46-25.06-79.32-63.78-3.91-31.11 12.51-61.46 40.73-75.07 5.87-2.83 8.62-7.26 8.57-13.74-.1-12.79-.03-25.58-.03-38.36-.01-.78-.01-1.55-.01-2.57zm88.92 108.99c-.1-.7-.13-1.05-.21-1.39-4.75-21.53-16.97-37.28-36.66-47.14-7.94-3.97-11.83-10.18-11.79-19.01.05-12.93.01-25.86.01-38.79v-2.54H90.76v2.43c0 12.93-.06 25.86.02 38.79.05 9.06-4.06 15.31-12.11 19.3-18.93 9.39-30.84 24.48-35.91 44.95-.82 3.31-1.15 6.73-1.71 10.19.59 0 .75.04.87-.01.54-.21 1.06-.45 1.59-.68 15.14-6.62 30.87-9.32 47.33-7.16 7.87 1.03 15.71 2.31 23.6 3.07 12.9 1.24 25.83.96 38.73-.02 6.62-.49 13.19-1.3 19.88-1.99zm.88 6.71c-7.11.69-13.93 1.47-20.76 1.97-19.87 1.47-39.66.98-59.35-2.5-17.95-3.18-35.03-.23-51.31 7.82-1.11.55-1.46 1.2-1.29 2.36.33 2.28.49 4.59.89 6.86 6.19 35.26 40.65 60.13 75.77 54.08 26.46-4.56 44.17-20.06 53.08-45.4 2.85-8.12 3.64-16.58 2.97-25.19zm-66.44-122.5h3.68c9.31 0 18.63.02 27.94-.02 2.39-.01 3.96-1.49 4.04-3.61.09-2.24-1.46-3.82-3.92-3.99-.5-.03-1.01-.02-1.52-.02H77.49c-.79 0-1.6-.02-2.37.12-2.04.36-3.35 2.26-3.05 4.29.31 2.05 1.85 3.21 4.43 3.21 10.34.03 20.66.02 30.99.02z"/><path class="jst0" d="M98.28 147.36c7.26.01 13.09 5.9 13 13.13-.09 7.16-5.92 12.93-13.04 12.91-7.1-.01-12.96-5.84-13.03-12.96-.07-7.19 5.82-13.09 13.07-13.08zm6.29 12.92c-.04-3.45-3.02-6.34-6.44-6.24-3.5.09-6.23 2.99-6.15 6.51.08 3.4 2.89 6.12 6.31 6.11 3.47-.02 6.32-2.91 6.28-6.38zM120.64 186.97c.04 6.11-4.82 11.07-10.88 11.12-6.02.05-11.05-4.9-11.13-10.93-.07-5.99 4.91-11.06 10.94-11.12 6.06-.05 11.04 4.86 11.07 10.93zm-10.94-4.13c-2.4-.01-4.27 1.82-4.28 4.2-.02 2.39 1.82 4.25 4.22 4.26 2.38.01 4.3-1.86 4.32-4.2.02-2.34-1.89-4.25-4.26-4.26zM136.36 159.07c6.08.04 10.95 5 10.88 11.08-.08 6.09-5.07 11.01-11.09 10.92-6.09-.09-10.89-5.02-10.85-11.13.03-6.11 4.92-10.91 11.06-10.87zm4.17 11.04c.03-2.31-1.91-4.32-4.22-4.35-2.29-.04-4.32 1.94-4.36 4.23-.04 2.31 1.9 4.28 4.24 4.31 2.37.03 4.31-1.85 4.34-4.19z"/></symbol><symbol viewBox="0 0 215 215" style="enable-background:new 0 0 215 215" xml:space="preserve" id="product-range4" xmlns="http://www.w3.org/2000/svg"><path d="M7.55 125.4h200.09c-.32-4.27.85-8.51-1.08-12.69-2.59-5.61-4.98-11.31-7.29-17.04-.74-1.83-1.59-2.53-3.68-2.51-19.21.1-38.42.06-57.63.06-.82 0-1.67.09-2.45-.1-1.79-.43-2.87-1.62-2.85-3.5.01-1.88 1.09-3.05 2.89-3.47.71-.16 1.48-.09 2.23-.09 20.4 0 40.8.04 61.2-.05 2.78-.01 4.39.93 5.46 3.53 3.07 7.51 6.37 14.93 9.48 22.42.55 1.33.82 2.86.87 4.3.12 3.95.05 7.91.03 11.86-.02 3.21-1.26 4.47-4.47 4.47-14.07.01-28.14.01-42.22.01H5.96c-4.72 0-5.28-.9-5.66-5.58-.73-8.95.99-17.23 5.18-25.16 2.18-4.13 3.8-8.57 5.57-12.91.85-2.08 2.25-2.92 4.47-2.92 20.85.04 41.7.02 62.54.03 2.83 0 4.46 1.32 4.48 3.54.02 2.29-1.65 3.61-4.65 3.61-19.51.01-39.02.04-58.52-.05-1.89-.01-2.71.64-3.38 2.3-2.03 5.04-3.92 10.18-6.45 14.97-2.52 4.81-1.93 9.76-1.99 14.97z"/><path fill="fill:#FAB214" d="M43.24 75.31C32.1 75.3 23.6 65.19 25.88 54.26c2.02-9.67 5.54-18.83 10.87-27.21.95-1.49 2.16-2.86 3.47-4.04 2.15-1.93 4.04-1.98 6.13.03 1.64 1.58 3.14 3.41 4.3 5.37 4.78 8.06 8.14 16.73 10.01 25.9 2.24 10.92-6.27 21.01-17.42 21zm.07-45.67c-4.84 8.57-8.64 16.78-10.55 25.74-.92 4.34 1.01 8.65 4.67 11.03 3.63 2.35 8.3 2.39 11.77-.08 3.8-2.71 5.74-6.54 4.45-11.06-1.69-5.91-3.93-11.67-6.15-17.41-1.03-2.67-2.59-5.13-4.19-8.22zM175.4 75.31c-11.04-.05-19.52-10.11-17.3-20.91 2.01-9.75 5.56-18.98 10.94-27.41.98-1.54 2.28-2.96 3.66-4.17 1.94-1.7 3.71-1.76 5.6 0 1.72 1.6 3.31 3.46 4.51 5.47 4.86 8.1 8.23 16.85 10.11 26.09 2.21 10.91-6.36 20.98-17.52 20.93zm.16-45.68c-4.84 8.56-8.64 16.76-10.55 25.73-.92 4.35 1 8.65 4.66 11.03 3.63 2.36 8.29 2.4 11.77-.07 3.81-2.7 5.75-6.53 4.46-11.06-1.68-5.91-3.92-11.67-6.15-17.41-1.03-2.65-2.59-5.11-4.19-8.22zM107.58 111.12C96.43 111.1 87.93 101 90.22 90.07c2.02-9.67 5.54-18.83 10.87-27.21.95-1.49 2.16-2.86 3.47-4.04 2.15-1.93 4.04-1.98 6.13.03 1.64 1.58 3.14 3.41 4.3 5.37a83.37 83.37 0 0 1 10.02 25.9c2.22 10.92-6.29 21.01-17.43 21zm.07-45.68C102.81 74 99.01 82.21 97.1 91.18c-.92 4.34 1 8.65 4.67 11.03 3.63 2.35 8.3 2.39 11.77-.07 3.81-2.71 5.74-6.54 4.45-11.06-1.68-5.91-3.93-11.67-6.15-17.41-1.03-2.67-2.59-5.13-4.19-8.23z"/><path d="M107.56 193.47c-11.14-.02-19.63-10.13-17.35-21.06 2.02-9.67 5.55-18.83 10.87-27.21.91-1.43 2.05-2.76 3.3-3.9 2.29-2.1 4.26-2.13 6.49.05 1.58 1.54 3 3.33 4.12 5.23a83.596 83.596 0 0 1 10.01 25.9c2.23 10.92-6.29 21.01-17.44 20.99zm.09-45.67c-4.84 8.56-8.64 16.77-10.55 25.73-.92 4.35 1 8.65 4.66 11.03 3.63 2.36 8.29 2.4 11.77-.07 3.81-2.71 5.74-6.54 4.46-11.06-1.68-5.91-3.93-11.67-6.15-17.41-1.03-2.66-2.59-5.12-4.19-8.22zM43.26 168.41c-10.43.03-20.07-9.58-17.35-21.93.56-2.53 1.29-5.04 2.11-7.5.8-2.39 2.6-3.34 4.62-2.7 2.04.65 2.79 2.64 2.07 5.15-.72 2.5-1.48 5-1.93 7.55-.81 4.52.98 8.07 4.72 10.53 3.77 2.48 7.79 2.47 11.55 0 3.72-2.45 5.52-6.02 4.7-10.54-.47-2.55-1.22-5.05-1.93-7.55-.72-2.5.04-4.49 2.08-5.14 2.02-.64 3.79.33 4.63 2.71 1.71 4.86 3.25 9.77 2.23 15.04-1.62 8.31-9.01 14.38-17.5 14.38zM178.98 168.41c-10.76-.05-19.13-9.67-17.44-20.25.51-3.21 1.44-6.37 2.42-9.49.68-2.18 2.67-3.05 4.6-2.37 1.88.66 2.67 2.55 2.06 4.78-.72 2.65-1.56 5.29-2.03 7.98-.78 4.42 1.03 7.88 4.62 10.38 3.54 2.46 8.26 2.47 11.76.02 3.57-2.5 5.39-5.96 4.63-10.38-.44-2.55-1.19-5.06-1.92-7.55-.74-2.53-.07-4.5 1.93-5.22 2.06-.74 3.9.25 4.78 2.76 1.67 4.79 3.19 9.63 2.21 14.82-1.62 8.46-9.02 14.56-17.62 14.52z"/><path fill="fill:#FAB214" d="M46.82 43.14c-.03 1.94-1.68 3.54-3.61 3.51-1.94-.03-3.53-1.68-3.5-3.62.03-1.95 1.67-3.54 3.61-3.51 1.94.04 3.53 1.68 3.5 3.62zM50.4 53.72c.06 1.93-1.52 3.61-3.45 3.67-1.93.06-3.6-1.52-3.66-3.46-.06-1.94 1.5-3.61 3.45-3.67 1.93-.05 3.59 1.52 3.66 3.46zM43.25 61.05c-.04 1.94-1.69 3.54-3.62 3.5-1.94-.04-3.53-1.69-3.49-3.63.04-1.95 1.68-3.53 3.62-3.5 1.93.05 3.52 1.69 3.49 3.63zM179.07 46.63c.02 1.94-1.59 3.58-3.52 3.6-1.93.02-3.57-1.59-3.59-3.53-.02-1.95 1.57-3.57 3.52-3.59 1.93-.02 3.57 1.58 3.59 3.52zM175.49 53.94c-.06 1.94-1.74 3.52-3.66 3.46-1.94-.06-3.51-1.73-3.45-3.67.06-1.95 1.72-3.52 3.66-3.46 1.94.06 3.51 1.73 3.45 3.67zM175.53 60.82c.1-1.94 1.79-3.49 3.73-3.39 1.93.1 3.48 1.8 3.39 3.73-.1 1.93-1.81 3.49-3.73 3.39-1.94-.09-3.49-1.8-3.39-3.73zM111.16 82.4c.04 1.93-1.55 3.6-3.48 3.64-1.93.04-3.59-1.55-3.63-3.49-.04-1.95 1.54-3.59 3.48-3.64 1.93-.04 3.58 1.55 3.63 3.49zM107.58 93.23c-.01 1.94-1.63 3.56-3.57 3.56-1.94-.01-3.55-1.63-3.54-3.57.01-1.95 1.62-3.56 3.56-3.55 1.94-.01 3.56 1.61 3.55 3.56z"/></symbol><symbol viewBox="0 0 215 215" style="enable-background:new 0 0 215 215" xml:space="preserve" id="product-range5" xmlns="http://www.w3.org/2000/svg"><path d="M98.71 214.59c-.44-.32-.91-.6-1.33-.95-1.35-1.13-1.92-2.59-1.45-4.29.48-1.77 1.72-2.84 3.55-3.09.68-.09 1.39-.05 2.08-.05h42.56c7.55 0 11.37-6.35 7.86-13.08-8.08-15.47-16.22-30.92-24.27-46.41-.66-1.27-1.4-1.59-2.74-1.59-29.21.04-58.41.04-87.62-.01-1.49 0-2.18.54-2.83 1.78-8 15.36-15.88 30.79-24.16 46-3.69 6.78.98 13.56 8.02 13.41 14.46-.3 28.93-.1 43.39-.08 2.47 0 4.06 1.11 4.62 3.12.52 1.86-.29 3.55-2.32 4.85-.17.11-.3.27-.44.4H14.78c-.58-.19-1.15-.4-1.74-.57-10.6-2.93-15.51-14.4-10.32-24.35 12.13-23.25 24.33-46.47 36.5-69.71 3.58-6.84 7.18-13.68 10.72-20.54.4-.77.7-1.69.71-2.54.05-11.43.03-22.86.03-34.29 0-.27-.04-.54-.09-1.12-1.3 0-2.59.04-3.88-.01-2.65-.09-4.33-1.69-4.35-4.32-.06-5.44-.05-10.87 0-16.31.02-2.76 1.67-4.41 4.45-4.44 4.66-.06 9.32-.02 13.98-.02h53.42c4.52 0 5.78 1.28 5.78 5.88 0 4.67.01 9.34 0 14.01-.01 3.74-1.46 5.19-5.18 5.21h-3.17v2.34c0 10.73-.03 21.47.04 32.2.01 1.32.35 2.77.96 3.94 15.55 29.79 31.16 59.54 46.75 89.31 4.68 8.95 1.85 18.92-6.64 23.32-1.64.85-3.46 1.33-5.2 1.98-16.28.02-32.56.02-48.84.02zm23.61-77.91c-.37-.77-.64-1.38-.95-1.98-5.64-10.79-11.32-21.56-16.89-32.4-.7-1.36-1.12-3.02-1.13-4.55-.09-11.29-.05-22.59-.05-33.88v-2.24H59.05v2.43c0 11.15.05 22.31-.05 33.46-.02 1.66-.46 3.47-1.22 4.95-5.53 10.77-11.19 21.48-16.8 32.21-.31.6-.59 1.22-.96 1.99 27.49.01 54.78.01 82.3.01zM50.79 53.01h60.71v-8.1H50.79v8.1z"/><path d="M214.35 45.17c-3.64 6.31-7.38 12.57-10.89 18.96-1.45 2.63-3.27 3.8-6.33 3.69-5.63-.2-11.27-.03-16.9-.08-1.16-.01-1.89.3-2.53 1.32-2.24 3.53-4.63 6.96-6.85 10.49-.34.53-.38 1.59-.08 2.14 1.89 3.42 2.32 6.92 1.16 10.68-.2.66.05 1.76.51 2.27 1.91 2.12 4.04 4.04 5.98 6.13.88.94 1.61 1.09 2.87.7 5.15-1.59 9.7-.36 13.23 3.7 3.52 4.06 4.18 8.79 1.82 13.64-2.35 4.83-6.44 7.23-11.81 7.06-8.16-.25-13.8-8.4-11.29-16.32.4-1.26.26-2-.67-2.88-2.08-1.95-4-4.08-6.11-6-.51-.47-1.6-.71-2.27-.52-5.28 1.54-10.46.12-13.77-3.93a12.537 12.537 0 0 1-1.34-13.91c2.5-4.61 7.35-7.03 12.77-6.52.63.06 1.59-.37 1.95-.88 2.39-3.42 4.7-6.91 6.92-10.44.34-.54.38-1.62.07-2.18-2.41-4.47-4.89-8.91-7.48-13.28-.39-.65-1.47-1.24-2.24-1.26-5.84-.1-11.69-.12-17.53-.03-2.36.04-3.93-.84-5.09-2.88a737.17 737.17 0 0 0-9.27-15.86c-.61-1-1.59-1.91-2.61-2.5-2.58-1.51-5.27-2.81-8.01-4.24-3.16 2.55-6.72 3.88-10.83 3.07-5.8-1.14-9.99-5.94-10.24-11.62-.26-6.03 3.44-11.14 9.28-12.82.39-.11.76-.29 1.14-.43h4.17c.11.08.2.21.33.25 6.89 2.15 9.78 5.89 10.1 13.04.02.48.21 1.19.56 1.38 2.14 1.22 4.34 2.33 6.59 3.52 2.93-5.08 5.65-9.94 8.52-14.7.79-1.31 2.07-2.33 3.12-3.48h25.05c1.08 1.22 2.38 2.3 3.21 3.67 2.87 4.76 5.62 9.59 8.3 14.46.68 1.23 1.44 1.59 2.78 1.57 5.7-.07 11.39.04 17.09-.06 2.52-.05 4.15.92 5.38 3.11 3.68 6.54 7.49 13 11.25 19.5-.01.8-.01 1.64-.01 2.47zm-26.77 14.22c2.5 0 5.01.09 7.5-.06.72-.04 1.7-.59 2.06-1.21 2.6-4.36 5.1-8.77 7.53-13.23.32-.58.32-1.64-.01-2.22-2.42-4.38-4.92-8.72-7.52-13-.37-.61-1.36-1.17-2.08-1.19-4.93-.1-9.87-.11-14.8 0-.77.02-1.83.61-2.23 1.26-2.52 4.08-4.87 8.27-7.35 12.37-.62 1.02-.66 1.8-.05 2.85 2.51 4.33 4.88 8.74 7.43 13.04.39.66 1.43 1.25 2.2 1.31 2.44.19 4.88.08 7.32.08zm-33.69-50.6c-2.43 0-4.87.06-7.3-.02-1.18-.04-1.87.31-2.47 1.39-2.36 4.26-4.89 8.43-7.22 12.7-.37.68-.38 1.91-.01 2.58 2.35 4.26 4.82 8.46 7.36 12.62.37.61 1.35 1.19 2.06 1.2 4.94.1 9.88.01 14.81.09 1.22.02 1.85-.43 2.43-1.45 2.34-4.11 4.73-8.2 7.18-12.24.63-1.04.61-1.81 0-2.84-2.45-4.13-4.86-8.28-7.16-12.5-.68-1.24-1.47-1.61-2.81-1.55-2.28.1-4.58.02-6.87.02zm-39.76 4.29c.06-2.2-1.75-4.15-3.96-4.27-2.29-.12-4.3 1.76-4.36 4.06-.05 2.24 1.72 4.15 3.94 4.26 2.3.12 4.31-1.75 4.38-4.05zm45.84 71.01c-2.31.05-4.16 2.04-4.06 4.36.1 2.23 2.01 4.02 4.23 3.98 2.21-.05 4.07-1.93 4.08-4.15.01-2.29-1.97-4.24-4.25-4.19zm29.3 29.3c.02-2.21-1.82-4.13-4.03-4.2-2.31-.08-4.27 1.8-4.28 4.13-.02 2.24 1.78 4.13 4 4.21 2.28.07 4.28-1.84 4.31-4.14z" style="fill:#fab214"/><path d="M79.92 214.59c-.39-.27-.78-.53-1.16-.82-2.07-1.58-2.36-4.34-.65-6.2a4.12 4.12 0 0 1 6.08-.01c1.72 1.85 1.45 4.61-.62 6.2-.37.29-.77.55-1.15.83h-2.5zM81.15 120.04c-8.33 0-14.41-8.06-11.88-15.96 1.86-5.82 5.12-10.95 8.67-15.86 1.6-2.21 4.7-2.32 6.3-.14 3.8 5.16 7.32 10.55 9.01 16.82 2.03 7.59-4.12 15.14-12.1 15.14zm.37-21.24c-.24.01-.47.01-.71.02-1.22 2.61-2.57 5.17-3.62 7.85-.66 1.67.17 3.15 1.57 4.18 1.5 1.1 3.12 1.14 4.66.09 1.43-.97 2.37-2.44 1.74-4.11-1.03-2.73-2.41-5.35-3.64-8.03z"/></symbol><symbol viewBox="0 0 64 64" style="enable-background:new 0 0 512 512" xml:space="preserve" id="quality" xmlns="http://www.w3.org/2000/svg"><g fill="#fff"><path d="M32 32c4.962 0 9-4.038 9-9s-4.038-9-9-9-9 4.038-9 9 4.038 9 9 9zm0-16c3.86 0 7 3.14 7 7s-3.14 7-7 7-7-3.14-7-7 3.14-7 7-7z" data-original="#000000"/><path d="M2.13 28.493A1 1 0 0 0 3 29h16.629l.044 2.25a.998.998 0 0 0 .673.925l3.986 1.38 2.542 3.366a1 1 0 0 0 1.089.354L32 36.045l4.036 1.229a1.007 1.007 0 0 0 1.09-.354l2.543-3.366 3.986-1.38a1 1 0 0 0 .673-.925L44.371 29H61a1 1 0 0 0 .857-1.514L59.166 23l2.691-4.485A1 1 0 0 0 61 17H44.371l-.044-2.25a.998.998 0 0 0-.673-.925l-3.986-1.38-2.543-3.365a1 1 0 0 0-1.089-.354L32 9.955l-4.036-1.229a1.002 1.002 0 0 0-1.089.354l-2.543 3.366-3.986 1.38a1 1 0 0 0-.673.925L19.629 17H3a1 1 0 0 0-.857 1.514L4.834 23l-2.691 4.485a.999.999 0 0 0-.013 1.008zM59.234 19l-2.091 3.485a1 1 0 0 0 0 1.029L59.234 27H44.432l2.388-3.429a1 1 0 0 0 0-1.143L44.432 19zm-37.829.861a1 1 0 0 0 .179-.552l.075-3.823 3.615-1.251c.188-.065.351-.184.471-.342l2.305-3.051 3.659 1.115c.19.058.393.058.583 0l3.659-1.114 2.305 3.051c.12.158.283.277.471.342l3.615 1.251.075 3.823c.004.198.066.39.18.552L44.781 23l-2.186 3.139a1 1 0 0 0-.179.552l-.075 3.823-3.615 1.251a1.002 1.002 0 0 0-.471.342l-2.305 3.051-3.659-1.115a1.03 1.03 0 0 0-.583 0l-3.659 1.114-2.305-3.051a1.002 1.002 0 0 0-.471-.342l-3.615-1.251-.075-3.823a.993.993 0 0 0-.18-.552L19.219 23zM6.857 23.515a1 1 0 0 0 0-1.029L4.766 19h14.801l-2.388 3.429a1 1 0 0 0 0 1.143L19.568 27H4.766z" data-original="#000000"/><path d="m31 27 .045-.001a1 1 0 0 0 .723-.359l5-6-1.536-1.28-4.299 5.159-2.226-2.226-1.414 1.414 3 3A1 1 0 0 0 31 27zm5.973 33.53a115 115 0 0 1 .057 1.498l1.999-.056a91.703 91.703 0 0 0-.058-1.526c-.137-3.239-.309-7.269 1.428-9.713l3.641-5.143a.874.874 0 0 1 1.455.045c.077.125.235.457.067.796l-2.142 3.705a3 3 0 0 0-.403 1.502h2c0-.176.046-.349.134-.5l.212-.367 4.516-1.507.032.016.016-.032 2.726-.91a3.009 3.009 0 0 0 1.224-.856l4.576-5.339a.89.89 0 0 1 1.334-.019c.277.292.285.798.02 1.178l-5.564 7.949c-.14.199-.302.38-.483.539l-3.779 3.307c-1.318 1.154-4.364 4.127-4.172 6.81l1.995-.144c-.105-1.46 1.816-3.693 3.494-5.161l3.779-3.307c.301-.264.571-.564.804-.896l5.564-7.95c.813-1.161.727-2.717-.206-3.7a2.969 2.969 0 0 0-2.182-.915 2.9 2.9 0 0 0-2.123 1.008l-.297.346.068-.409a2.528 2.528 0 0 0-2.495-2.946 2.528 2.528 0 0 0-2.455 1.916l-.683 2.735-2.565 5.13-1.637.546.45-.78c.449-.897.402-1.942-.125-2.795s-1.441-1.363-2.444-1.363c-.931 0-1.808.454-2.345 1.213l-3.623 5.119c-2.148 3.023-1.961 7.433-1.81 10.976zm15.938-17.251a.99.99 0 0 0 .076-.205l.71-2.841a.53.53 0 0 1 1.037.216l-.612 3.675-1.763 2.056a.97.97 0 0 1-.374.273l-.793.264zm-33.63 1.942c.283 0 .55.138.713.369l3.625 5.122c1.752 2.466 1.581 6.497 1.443 9.735-.022.527-.044 1.038-.057 1.525l1.999.056c.013-.478.035-.979.057-1.496.15-3.544.337-7.954-1.812-10.979l-.003.002c-.194-.283-.895-1.272-3.619-5.122a2.878 2.878 0 0 0-2.346-1.213 2.854 2.854 0 0 0-2.444 1.362c-.527.854-.574 1.898-.097 2.849l.42.726-1.634-.545-2.565-5.13-.684-2.735a2.528 2.528 0 0 0-4.385-1.021 2.523 2.523 0 0 0-.564 2.05l.068.409-.297-.345a2.9 2.9 0 0 0-2.123-1.008 2.992 2.992 0 0 0-2.182.915c-.932.984-1.018 2.54-.206 3.7l5.565 7.95c.231.33.501.631.803.896l3.779 3.307c1.677 1.468 3.599 3.7 3.494 5.161l1.995.144c.192-2.683-2.853-5.656-4.171-6.81l-3.779-3.307a3.04 3.04 0 0 1-.482-.537L4.226 43.3c-.265-.379-.257-.886.02-1.177a.925.925 0 0 1 .681-.291.89.89 0 0 1 .654.31l4.576 5.338c.328.383.751.68 1.259.87l2.691.898.016.031.031-.016 4.517 1.507.212.368c.053.093.134.433.134.694h2c0-.371-.085-1.145-.403-1.695L18.5 46.484a.86.86 0 0 1 .038-.85.863.863 0 0 1 .743-.413zm-7.198 1.244a1.003 1.003 0 0 1-.408-.286l-1.763-2.056-.612-3.675c-.035-.21.059-.358.118-.428s.19-.188.404-.188c.244 0 .455.165.514.401l.71 2.842c.018.071.043.139.076.205l1.72 3.439zm18.466-4.532a19.26 19.26 0 0 1-1.885-.238l-.348 1.97c.686.121 1.386.209 2.081.262zm3.794-.086c-.625.077-1.263.123-1.893.137l.045 2a21.232 21.232 0 0 0 2.093-.152zm-7.529-.575a18.93 18.93 0 0 1-1.799-.608l-.733 1.861c.651.257 1.32.483 1.988.672zm9.398.25.441 1.95c.68-.154 1.36-.344 2.022-.567l-.637-1.896c-.596.201-1.211.373-1.826.513zm-12.924-1.643a19.267 19.267 0 0 1-1.641-.955L20.556 40.6c.583.38 1.193.735 1.814 1.055zm18.208-.431a19.21 19.21 0 0 1-1.689.867l.823 1.823a21.04 21.04 0 0 0 1.866-.958zM20.11 37.81c-.491-.395-.969-.82-1.419-1.262l-1.402 1.427c.497.489 1.025.958 1.568 1.394zm24.465-.578c-.473.418-.972.816-1.484 1.185l1.169 1.623a21.226 21.226 0 0 0 1.64-1.309zm-29.97-2.477c.39.577.815 1.141 1.262 1.677l1.536-1.281a19.334 19.334 0 0 1-1.142-1.517zm31.329 1.151 1.467 1.36c.475-.513.929-1.053 1.348-1.607l-1.593-1.208c-.38.501-.791.991-1.222 1.455zm-33.323-4.838c.27.646.574 1.282.905 1.894l1.759-.951a18.812 18.812 0 0 1-.818-1.713zm38.325 1.013-1.802-.867c-.274.57-.579 1.131-.907 1.668l1.706 1.043c.362-.594.7-1.215 1.003-1.844zM13.55 14.198l1.815.84c.263-.57.561-1.135.883-1.68l-1.722-1.018a21.487 21.487 0 0 0-.976 1.858zm38.335.464a21.175 21.175 0 0 0-.931-1.88l-1.746.975c.308.552.592 1.124.843 1.702zm-33.39-4.36-1.484-1.34a20.82 20.82 0 0 0-1.326 1.627l1.611 1.185c.373-.508.776-1.003 1.199-1.472zm31.343.701a21.342 21.342 0 0 0-1.285-1.658l-1.518 1.302c.412.48.803.985 1.164 1.501zM19.836 8.956c.467-.424.961-.83 1.468-1.206l-1.191-1.607c-.56.415-1.105.863-1.621 1.332zm24.455-.929c.496.386.979.804 1.437 1.241l1.381-1.446a21.022 21.022 0 0 0-1.588-1.371zm-19.73-2.223-.85-1.81a20.79 20.79 0 0 0-1.852.985l1.026 1.717a18.942 18.942 0 0 1 1.676-.892zm16.523.2c.562.28 1.119.593 1.653.93l1.067-1.691a21.077 21.077 0 0 0-1.829-1.03zm-14.766-.919a19.105 19.105 0 0 1 1.819-.538l-.47-1.944c-.68.164-1.357.365-2.013.595zm13.734-1.712a20.937 20.937 0 0 0-1.999-.643l-.515 1.933c.607.161 1.214.357 1.805.581zm-10.049.822a18.912 18.912 0 0 1 1.891-.164l-.074-1.999c-.698.026-1.402.087-2.091.182zm3.789-.141c.634.04 1.27.11 1.889.211L36 2.291a21.454 21.454 0 0 0-2.084-.233z" data-original="#000000"/></g></symbol><symbol style="enable-background:new 0 0 512 512" xml:space="preserve" viewBox="0 0 512 512" id="reagment" xmlns="http://www.w3.org/2000/svg"><g fill="#fff"><path d="M303.094 174.25a7.498 7.498 0 0 0 10.445-1.84l15.953-22.789a7.495 7.495 0 0 0-1.84-10.445 7.5 7.5 0 0 0-10.445 1.844l-15.957 22.785a7.5 7.5 0 0 0 1.844 10.445zm38.578-18.266-5.418 27.286a7.502 7.502 0 0 0 14.715 2.921l5.414-27.289a7.497 7.497 0 0 0-5.895-8.816 7.5 7.5 0 0 0-8.816 5.898zM309.59 121.45a7.493 7.493 0 0 0-10.3-2.524l-23.79 14.422c-3.543 2.144-4.672 6.757-2.527 10.3a7.502 7.502 0 0 0 10.304 2.524l23.79-14.422a7.496 7.496 0 0 0 2.523-10.3zM83.652 152.18a10.2 10.2 0 0 0 8.97 0c7-3.453 29.835-16.508 29.835-39.465 0-18.203-21.215-27.063-34.312-16.074-13.079-11.008-34.325-2.11-34.325 16.074 0 23.015 22.844 36.031 29.832 39.465zm-3.777-42.368c1.398 2.47 4.469 4.626 8.023 4.711 3.567.114 6.97-2.039 8.461-4.652 3.051-5.348 11.098-3.148 11.098 2.848 0 12.687-13.387 21.562-19.324 24.875-5.93-3.297-19.313-12.145-19.313-24.875 0-6.043 8.086-8.133 11.055-2.906zm61.265-6.195h29.637c4.145 0 7.5-3.355 7.5-7.5a7.5 7.5 0 0 0-7.5-7.5h-29.636a7.5 7.5 0 0 0-7.5 7.5c0 4.145 3.355 7.5 7.5 7.5zm0 26.41h29.637c4.145 0 7.5-3.355 7.5-7.5 0-4.144-3.355-7.5-7.5-7.5h-29.636a7.497 7.497 0 0 0-7.5 7.5 7.5 7.5 0 0 0 7.5 7.5zm0 26.411h29.637c4.145 0 7.5-3.356 7.5-7.5s-3.355-7.5-7.5-7.5h-29.636c-4.145 0-7.5 3.355-7.5 7.5s3.355 7.5 7.5 7.5zm354.63-141.43c4.144 0 7.5-3.356 7.5-7.5 0-4.145-3.356-7.5-7.5-7.5h-73.711c-.118 0-.23.012-.348.015a7.488 7.488 0 0 0-6.54 3.184l-25.89 36.973-32.84-22.996C339.071 5.02 317.54.894 296.848 5.644l-2.598-1.82c-9.59-6.71-22.816-4.347-29.5 5.2l-5.969 8.523c-6.695 9.562-4.363 22.8 5.203 29.496l2.047 1.434c-6.843 30.554 26.828 54.109 53.18 37.238l4.191 2.933c-6.847 30.555 26.817 54.11 53.176 37.239l4.192 2.933c-6.844 30.551 26.82 54.11 53.18 37.239l2.054 1.437c9.566 6.7 22.797 4.363 29.496-5.203l5.969-8.523c6.695-9.563 4.363-22.797-5.203-29.497l-3.27-2.289c-2.613-21.066-13.855-39.89-31.23-52.054L401.57 48.785l23.653-33.777zM280.312 58.48l24.622 17.243a20.04 20.04 0 0 1-24.622-17.243zm57.368 40.168c15.11 10.579 9.52 6.668 24.625 17.243a20.04 20.04 0 0 1-24.625-17.243zm57.37 40.172c14.954 10.47 9.727 6.813 24.626 17.243a20.04 20.04 0 0 1-24.625-17.243zm64.13 6.344-5.97 8.524a6.188 6.188 0 0 1-8.605 1.519c-9.492-6.648-162.52-113.8-172.02-120.45-2.769-1.94-3.456-5.831-1.515-8.605l5.97-8.523c1.944-2.777 5.839-3.453 8.605-1.516l172.02 120.446c2.773 1.941 3.456 5.836 1.515 8.605zm-14.903-36.289c-7.894-5.531-125.047-87.559-128.71-90.125a59.34 59.34 0 0 1 32.273 10.723l75.324 52.742a59.356 59.356 0 0 1 21.113 26.66zm0 0" data-original="#000000"/><path d="M490.82 310.516h-32.312a24.2 24.2 0 0 0 1.851-9.293c0-13.391-10.898-24.285-24.289-24.285h-43.113c-2.305-6.786-8.719-11.688-16.273-11.688H213.828a2.36 2.36 0 0 1-.52-.063l-34.828-8.496c-6.816-1.66-14.062.914-18.238 6.989l-20.387-4.973c-10.437-2.543-20.976 2.113-26.375 10.773h-3.14c7.586-8.93 12.176-20.48 12.176-33.09 0-9.335-2.524-18.09-6.907-25.632h91.258c16.317 0 29.594-13.278 29.594-29.594v-41.137a7.5 7.5 0 0 0-7.5-7.5 7.497 7.497 0 0 0-7.5 7.5v41.137c0 8.047-6.547 14.594-14.594 14.594H102.445c-18.312-14.059-43.886-14.07-62.234 0H29.59c-8.043 0-14.59-6.547-14.59-14.594V63.891c0-8.047 6.547-14.594 14.59-14.594h177.28c8.043 0 14.59 6.547 14.59 14.594v41.136a7.502 7.502 0 0 0 15.004 0V63.891c0-16.317-13.277-29.594-29.594-29.594H29.59C13.273 34.297 0 47.57 0 63.89v117.277c0 15.48 11.953 28.215 27.11 29.48a50.864 50.864 0 0 0-6.973 25.743c0 12.609 4.593 24.16 12.18 33.09H21.18C9.5 269.48 0 278.98 0 290.66v13.679c0 5.215 1.902 9.984 5.04 13.68A21.046 21.046 0 0 0 0 331.695v13.68c0 11.328 8.945 20.578 20.137 21.129v6.61c0 11.679 9.504 21.179 21.18 21.179H62.03v95.14c0 7.88 6.41 14.29 14.293 14.29h14.153c7.878 0 14.293-6.41 14.293-14.29v-95.14h52.445v61.297c0 9.48 7.71 17.191 17.191 17.191h86.567c4.14 0 7.5-3.355 7.5-7.5s-3.36-7.5-7.5-7.5h-86.567a2.196 2.196 0 0 1-2.191-2.191V273.434a.958.958 0 0 0 .008-.106 2.18 2.18 0 0 1 2.703-2.062l34.828 8.496c1.332.324 2.703.488 4.074.488h162.856c1.21 0 2.191.98 2.191 2.191V455.59c0 1.207-.98 2.191-2.191 2.191h-80.711a7.5 7.5 0 1 0 0 15h80.71c9.481 0 17.192-7.71 17.192-17.191v-61.297h13.355v95.137c0 7.882 6.41 14.293 14.293 14.293h14.153c7.883 0 14.293-6.41 14.293-14.293v-95.137h20.71c11.68 0 21.18-9.5 21.18-21.18V366.5c11.196-.547 20.141-9.797 20.141-21.125v-13.68c0-11.675-9.5-21.18-21.18-21.18zM136.305 273.28l20.91 5.102v19.12l-8.867-2.163-16.442-4.008c-4.36-1.062-7.242-5.055-7.086-9.363.211-5.778 5.7-10.094 11.485-8.688zm-64.977-.703c-19.82 0-36.191-16.129-36.191-36.187 0-18.766 14.36-34.27 32.773-36.024 21.274-2.004 39.606 14.778 39.606 36.024 0 20.117-16.426 36.187-36.188 36.187zM15 290.66a6.188 6.188 0 0 1 6.18-6.18h32.6c11.254 4.122 23.824 4.125 35.094 0h21.031c.918 10.31 8.39 18.973 18.442 21.422l9.37 2.286a6.173 6.173 0 0 1-4.827 2.328H21.18c-3.407 0-6.18-2.77-6.18-6.176zm0 54.715v-13.68c0-3.406 2.773-6.175 6.18-6.175h136.035v26.035H21.18a6.188 6.188 0 0 1-6.18-6.18zm74.766 143.348H77.03v-94.43h12.735zm-48.45-109.43a6.188 6.188 0 0 1-6.18-6.18v-6.558h122.079v12.738H41.316zm404.04-78.07c0 5.125-4.165 9.289-9.286 9.289h-42.195v-18.574h42.195c5.121 0 9.285 4.164 9.285 9.285zm-10.387 187.5H422.23v-94.43h12.739zm41.89-115.61c0 3.407-2.77 6.18-6.18 6.18h-76.804v-12.738h82.984zM497 345.375a6.188 6.188 0 0 1-6.18 6.18h-96.945V325.52h96.945c3.407 0 6.18 2.77 6.18 6.18zm0 0" data-original="#000000"/><path d="M34.773 61.57a7.5 7.5 0 0 0-7.5 7.5v106.914c0 4.145 3.356 7.5 7.5 7.5h166.915c4.144 0 7.5-3.355 7.5-7.5V69.07a7.5 7.5 0 0 0-7.5-7.5zm159.415 106.914H42.273V76.57h151.915zm0 0" data-original="#000000"/></g></symbol><symbol viewBox="0 0 682.667 682.667" style="enable-background:new 0 0 512 512" xml:space="preserve" id="supply" xmlns="http://www.w3.org/2000/svg"><defs><clipPath id="oa" clipPathUnits="userSpaceOnUse"><path d="M0 512h512V0H0Z" fill="#fff" data-original="#000000"/></clipPath></defs><g clip-path="url(#oa)" transform="matrix(1.33333 0 0 -1.33333 0 682.667)" fill="none" stroke="#fff" stroke-width="15" stroke-linecap="round" stroke-linejoin="round" stroke-miterlimit="10"><path d="M0 0v-319.63c0-3.391 2.75-6.141 6.13-6.141H234.2" style="stroke-width:15;stroke-linecap:round;stroke-linejoin:round;stroke-miterlimit:10;stroke-dasharray:none;stroke-opacity:1" transform="translate(46.48 405.75)" data-original="#000000"/><path d="M0 0v57.61c0 3.39 2.75 6.14 6.13 6.14h301.9c3.39 0 6.14-2.75 6.14-6.14v-283" style="stroke-width:15;stroke-linecap:round;stroke-linejoin:round;stroke-miterlimit:10;stroke-dasharray:none;stroke-opacity:1" transform="translate(46.48 440.75)" data-original="#000000"/><path d="M0 0h27.283c1.042 0 1.886.845 1.886 1.886v27.283a2.83 2.83 0 0 0 2.83 2.829h27.768a2.83 2.83 0 0 0 2.83-2.829V1.886C62.597.845 63.441 0 64.483 0h27.283a2.829 2.829 0 0 0 2.829-2.829v-27.769a2.829 2.829 0 0 0-2.829-2.829H64.483a1.885 1.885 0 0 1-1.886-1.886v-27.284a2.83 2.83 0 0 0-2.83-2.829H31.999a2.83 2.83 0 0 0-2.83 2.829v27.284a1.885 1.885 0 0 1-1.886 1.886H0a2.83 2.83 0 0 0-2.829 2.829v27.769A2.83 2.83 0 0 0 0 0Z" style="stroke-width:15;stroke-linecap:round;stroke-linejoin:round;stroke-miterlimit:10;stroke-dasharray:none;stroke-opacity:1" transform="translate(157.68 435.709)" data-original="#000000"/><path d="M0 0v-23.169a5 5 0 0 0-5-5h-191.47a5 5 0 0 0-5 5V0a5 5 0 0 0 5 5H-5a5 5 0 0 0 5-5Z" style="stroke-width:15;stroke-linecap:round;stroke-linejoin:round;stroke-miterlimit:10;stroke-dasharray:none;stroke-opacity:1" transform="translate(304.298 311.784)" data-original="#000000"/><path d="M0 0h-13.493" style="stroke-width:15;stroke-linecap:round;stroke-linejoin:round;stroke-miterlimit:10;stroke-dasharray:none;stroke-opacity:1" transform="translate(287.58 240.787)" data-original="#000000"/><path d="M0 0h-67.299" style="stroke-width:15;stroke-linecap:round;stroke-linejoin:round;stroke-miterlimit:10;stroke-dasharray:none;stroke-opacity:1" transform="translate(186.845 240.787)" data-original="#000000"/><path d="M0 0h-13.493" style="stroke-width:15;stroke-linecap:round;stroke-linejoin:round;stroke-miterlimit:10;stroke-dasharray:none;stroke-opacity:1" transform="translate(287.58 197.397)" data-original="#000000"/><path d="M0 0h-67.299" style="stroke-width:15;stroke-linecap:round;stroke-linejoin:round;stroke-miterlimit:10;stroke-dasharray:none;stroke-opacity:1" transform="translate(186.845 197.397)" data-original="#000000"/><path d="M0 0h-13.493" style="stroke-width:15;stroke-linecap:round;stroke-linejoin:round;stroke-miterlimit:10;stroke-dasharray:none;stroke-opacity:1" transform="translate(287.58 154.006)" data-original="#000000"/><path d="M0 0h-67.299" style="stroke-width:15;stroke-linecap:round;stroke-linejoin:round;stroke-miterlimit:10;stroke-dasharray:none;stroke-opacity:1" transform="translate(186.845 154.006)" data-original="#000000"/><path d="M0 0v-33.169" style="stroke-width:15;stroke-linecap:round;stroke-linejoin:round;stroke-miterlimit:10;stroke-dasharray:none;stroke-opacity:1" transform="translate(203.563 316.784)" data-original="#000000"/><path d="m0 0-41.573-72.008" style="stroke-width:15;stroke-linecap:round;stroke-linejoin:round;stroke-miterlimit:10;stroke-dasharray:none;stroke-opacity:1" transform="translate(425.589 137.81)" data-original="#000000"/><path d="m0 0-2.474-4.284C-15.809-27.381-45.343-35.295-68.438-21.96-91.535-8.625-99.449 20.908-86.114 44.005l61.289 106.157" style="stroke-width:15;stroke-linecap:round;stroke-linejoin:round;stroke-miterlimit:10;stroke-dasharray:none;stroke-opacity:1" transform="translate(366.773 35.938)" data-original="#000000"/><path d="m0 0 25.562 44.275c4.561 7.899 14.661 10.605 22.559 6.044l44.652-25.78c7.899-4.56 10.605-14.659 6.045-22.559L73.256-42.294" style="stroke-width:15;stroke-linecap:round;stroke-linejoin:round;stroke-miterlimit:10;stroke-dasharray:none;stroke-opacity:1" transform="translate(364.487 213.147)" data-original="#000000"/><path d="M0 0h111.521" style="stroke-width:15;stroke-linecap:round;stroke-linejoin:round;stroke-miterlimit:10;stroke-dasharray:none;stroke-opacity:1" transform="translate(299.294 112.219)" data-original="#000000"/><path d="m0 0 93.889-54.207c6.84-3.948 15.585-1.606 19.534 5.234l3.047 5.278c3.948 6.84 1.605 15.585-5.235 19.534L17.347 30.045c-6.839 3.949-15.585 1.605-19.534-5.233l-3.046-5.279C-9.183 12.694-6.839 3.948 0 0Z" style="stroke-width:15;stroke-linecap:round;stroke-linejoin:round;stroke-miterlimit:10;stroke-dasharray:none;stroke-opacity:1" transform="translate(336.824 189.058)" data-original="#000000"/></g></symbol><symbol fill="none" viewBox="0 0 20 20" id="top" xmlns="http://www.w3.org/2000/svg"><path d="M9.383 14.546V3.013L6.277 6.119l-.944-.957L10.05.443l4.719 4.719-.944.959-3.108-3.108v11.533H9.383ZM2.871 19.11c-.614 0-1.126-.205-1.537-.616-.41-.41-.616-.924-.617-1.539v-3.23H2.05v3.23c0 .206.085.394.256.566.17.171.359.256.564.256h14.36c.205 0 .393-.086.564-.256.172-.171.257-.36.256-.566v-3.23h1.334v3.23c0 .615-.206 1.127-.617 1.538-.41.41-.923.616-1.538.617H2.87Z" fill="#fff"/></symbol><symbol xml:space="preserve" viewBox="0 0 512 512" id="truck" xmlns="http://www.w3.org/2000/svg"><g fill="#fff"><path d="m476.158 231.363-13.259-53.035c3.625-.77 6.345-3.986 6.345-7.839v-8.551c0-18.566-15.105-33.67-33.67-33.67h-60.392V110.63c0-9.136-7.432-16.568-16.568-16.568H50.772c-9.136 0-16.568 7.432-16.568 16.568V256a8.017 8.017 0 0 0 16.034 0V110.63c0-.295.239-.534.534-.534h307.841c.295 0 .534.239.534.534v145.372a8.017 8.017 0 0 0 16.034 0v-9.088h94.569l.021.002.022-.001c11.637.008 21.518 7.646 24.912 18.171h-24.928a8.017 8.017 0 0 0-8.017 8.017v17.102c0 13.851 11.268 25.119 25.119 25.119h9.086v35.273h-20.962c-6.886-19.883-25.787-34.205-47.982-34.205s-41.097 14.322-47.982 34.205h-3.86v-60.393a8.017 8.017 0 0 0-16.034 0v60.391H192.817c-6.886-19.883-25.787-34.205-47.982-34.205s-41.097 14.322-47.982 34.205H50.772a.534.534 0 0 1-.534-.534v-17.637h34.739a8.017 8.017 0 0 0 0-16.034H8.017a8.017 8.017 0 0 0 0 16.034h26.188v17.637c0 9.136 7.432 16.568 16.568 16.568h43.304c-.002.178-.014.355-.014.534 0 27.996 22.777 50.772 50.772 50.772s50.772-22.776 50.772-50.772c0-.18-.012-.356-.014-.534h180.67c-.002.178-.014.355-.014.534 0 27.996 22.777 50.772 50.772 50.772 27.995 0 50.772-22.776 50.772-50.772 0-.18-.012-.356-.014-.534h26.203a8.017 8.017 0 0 0 8.017-8.017v-85.511c.001-21.112-15.576-38.653-35.841-41.738zm-100.976-87.062h60.392c9.725 0 17.637 7.912 17.637 17.637v.534h-78.029v-18.171zm0 86.58v-52.376h71.235l13.094 52.376h-84.329zM144.835 401.904c-19.155 0-34.739-15.583-34.739-34.739s15.584-34.739 34.739-34.739c19.155 0 34.739 15.583 34.739 34.739s-15.584 34.739-34.739 34.739zm282.188 0c-19.155 0-34.739-15.583-34.739-34.739s15.584-34.739 34.739-34.739c19.155 0 34.739 15.583 34.739 34.739s-15.584 34.739-34.739 34.739zm68.944-102.614h-9.086c-5.01 0-9.086-4.076-9.086-9.086v-9.086h18.171v18.172z" data-original="#fff"/><path d="M144.835 350.597c-9.136 0-16.568 7.432-16.568 16.568 0 9.136 7.432 16.568 16.568 16.568 9.136 0 16.568-7.432 16.568-16.568 0-9.136-7.432-16.568-16.568-16.568zm282.188 0c-9.136 0-16.568 7.432-16.568 16.568 0 9.136 7.432 16.568 16.568 16.568 9.136 0 16.568-7.432 16.568-16.568 0-9.136-7.432-16.568-16.568-16.568zm-94.063-34.204H213.244a8.017 8.017 0 0 0 0 16.034H332.96a8.017 8.017 0 0 0 0-16.034zm-205.227-34.205H25.119a8.017 8.017 0 0 0 0 16.034h102.614a8.017 8.017 0 0 0 0-16.034zM278.771 173.37a8.017 8.017 0 0 0-11.337.001l-71.292 71.291-37.087-37.087a8.016 8.016 0 0 0-11.337 0 8.016 8.016 0 0 0 0 11.337l42.756 42.756c1.565 1.566 3.617 2.348 5.668 2.348s4.104-.782 5.668-2.348l76.96-76.96a8.018 8.018 0 0 0 .001-11.338z" data-original="#fff"/></g></symbol></svg>